<?xml version="1.0" encoding="utf-8"?>
<!-- Generator: Adobe Illustrator 27.3.1, SVG Export Plug-In . SVG Version: 6.00 Build 0)  -->
<svg version="1.1" id="Layer_1" xmlns="http://www.w3.org/2000/svg" xmlns:xlink="http://www.w3.org/1999/xlink" x="0px" y="0px"
	 viewBox="0 0 507 386" style="enable-background:new 0 0 507 386;" xml:space="preserve">
<style type="text/css">
	.st0{clip-path:url(#SVGID_00000047743812638694207100000017650083360585046719_);}
	.st1{fill:#EBEBEB;}
	.st2{fill:#E0E0E0;}
	.st3{fill:#F5F5F5;}
	.st4{fill:#263238;}
	.st5{fill:#455A64;}
	.st6{opacity:0.3;}
	.st7{fill:#1C8CD0;}
	.st8{fill:#FFFFFF;}
</style>
<g>
	<defs>
		<rect id="SVGID_1_" x="-72" width="630" height="386"/>
	</defs>
	<clipPath id="SVGID_00000023262297058812152250000011004002642936666520_">
		<use xlink:href="#SVGID_1_"  style="overflow:visible;"/>
	</clipPath>
	<g style="clip-path:url(#SVGID_00000023262297058812152250000011004002642936666520_);">
		<path class="st1" d="M350,46.9L91.2,119.3c18.1-11.5,38.2-20.4,58.2-29.3c21.7-9.6,37.5-5.7,61.4-9.3c11-1.7,29.5-13.2,38.6-18.8
			c16.5-10.1,33.2-20.9,51.8-19.5c4.2-7.3,13.2-12.6,22.6-13.2c9.5-0.7,19,3.2,24.1,9.9c0,0,15.6-4.1,21.8-1l18.1-0.4L350,46.9z"/>
		<path class="st1" d="M95.8,71.8c28.3-18.3,51.4-15.7,78.4-27.6c7.3-3.3,14.4-7.1,21.2-11.2c14.1-8.2,29-16.9,45.7-17.9
			c12.9-3.5,26.1-6,39.3-7.5c19.4-2.2,39.1-2.3,58.6-4.3C272,14.5,159.8,50.2,95.8,71.8z"/>
		<path class="st2" d="M110.2,382.8c20.5,0,37.1-3.5,37.1-7.8c0-4.3-16.6-7.8-37.1-7.8s-37.1,3.5-37.1,7.8
			C73.1,379.3,89.7,382.8,110.2,382.8z"/>
		<path class="st2" d="M413.8,289.3c20.5,0,37.1-3.5,37.1-7.8s-16.6-7.8-37.1-7.8c-20.5,0-37.1,3.5-37.1,7.8
			S393.3,289.3,413.8,289.3z"/>
		<path class="st2" d="M86.2,317.4l-10.6,8c111.3,36.2,234.3,35.6,345.2-1.8C309.2,324.6,197.5,325.5,86.2,317.4z"/>
		<path class="st3" d="M391.2,90.5c0.7-1.7,1.6-3.4,2.7-4.8c1.3-1.6,3.1-2.6,5.1-2.8c2.1-0.2,4.4,0.7,5.1,2.4
			c0.3-3.8,0.9-7.7,3.2-11.1c1.1-1.8,2.7-3.2,4.5-4.2c1.8-1,3.9-1.5,6-1.5s4.1,0.6,5.9,1.7c1.8,1.1,3.3,2.6,4.3,4.4
			c2,3.2,2.7,2.2,3.4,5.7c1.6-1.7,5-1.2,6.7,0.5c1.7,1.6,2.1,3.9,2.4,6l-51.9,4.7L391.2,90.5z"/>
		<path class="st3" d="M58.4,166c0.7-1.7,1.6-3.4,2.7-4.8c1.3-1.6,3.1-2.6,5.1-2.8c2.1-0.2,4.4,0.7,5.1,2.4
			c0.3-3.8,0.9-7.7,3.2-11.1c1.2-1.8,2.8-3.2,4.7-4.2s4-1.5,6.2-1.5c2,0.2,3.9,0.8,5.7,1.9c1.7,1.1,3.2,2.5,4.2,4.2
			c2,3.2,2.7,2.2,3.4,5.7c1.6-1.7,5-1.2,6.7,0.5c1.7,1.6,2.1,3.9,2.4,6L55.9,167L58.4,166z"/>
		<path class="st3" d="M103.8,25.6c0.7-1.4,1.6-2.8,2.7-3.9c1.4-1.3,3.2-2.1,5.1-2.3c2.1-0.2,4.4,0.6,5.1,2c0.3-3.1,0.9-6.3,3.2-9
			c1.4-1.5,3.1-2.7,4.9-3.5c1.9-0.8,3.9-1.2,6-1.1c1.9,0.1,3.8,0.6,5.5,1.4c1.7,0.8,3.2,2,4.4,3.5c2,2.6,2.7,1.8,3.4,4.6
			c1.6-1.4,5-0.9,6.7,0.4c1.7,1.3,2.1,3.2,2.5,4.9l-51.9,3.8L103.8,25.6z"/>
		<path class="st4" d="M221.9,373.1c0,0.1-10.9,0.2-24.3,0.2c-13.4,0-24.3-0.1-24.3-0.2c0-0.1,10.9-0.2,24.3-0.2
			C211,372.9,221.9,373,221.9,373.1z"/>
		<path class="st4" d="M235.3,378.5c0,0.1-9.8,0.2-21.9,0.2c-12.1,0-21.9-0.1-21.9-0.2c0-0.1,9.8-0.2,21.9-0.2
			C225.5,378.3,235.3,378.4,235.3,378.5z"/>
		<path class="st4" d="M393.4,362.6c0,0.1-7.6,0.2-17.1,0.2c-9.4,0-17.1-0.1-17.1-0.2c0-0.1,7.6-0.2,17.1-0.2
			S393.4,362.5,393.4,362.6z"/>
		<path class="st4" d="M407.1,367.3c0,0.1-6.9,0.2-15.4,0.2s-15.4-0.1-15.4-0.2c0-0.1,6.9-0.2,15.4-0.2S407.1,367.1,407.1,367.3z"/>
		<path class="st4" d="M403.4,358.1c0,0.1-6.9,0.2-15.4,0.2s-15.4-0.1-15.4-0.2c0-0.1,6.9-0.2,15.4-0.2S403.4,358,403.4,358.1z"/>
		<path class="st4" d="M461,266.7c0,0.1-93.6,0.2-209,0.2c-115.4,0-209-0.1-209-0.2c0-0.1,93.6-0.2,209-0.2S461,266.6,461,266.7z"/>
		<path class="st4" d="M451.7,279c0,3.3-15.3,6-34.3,6s-34.3-2.7-34.3-6c0-0.4,0.1-3.3,0.1-3.3c3.2-2.7,17.6-2.7,34.2-2.7
			c16.4,0,30.9-0.8,34.2,2.8C451.7,275.8,451.7,278.5,451.7,279z"/>
		<path class="st5" d="M451.7,275.6c0,3-15.3,5.5-34.3,5.5s-34.3-2.4-34.3-5.5c0-3,15.3-5.5,34.3-5.5
			C436.4,270.1,451.7,272.6,451.7,275.6z"/>
		<path class="st5" d="M412.5,252.6c-1.7,0.2-4.1,12.5-5.2,17.9c-0.1,0.8,0,1.5,0.4,2.2s1,1.1,1.8,1.3c2.2,0.7,4.6,0.8,6.9,0.2
			c0.7-0.2,1.4-0.7,1.8-1.4c0.4-0.7,0.5-1.5,0.3-2.2C417.3,265.3,414.2,252.4,412.5,252.6z"/>
		<path class="st5" d="M420,260.1c-1.1,0.1-2.8,8.3-3.4,11.9c-0.1,0.5,0,1,0.3,1.4c0.3,0.4,0.7,0.7,1.2,0.9c1.5,0.5,3.1,0.5,4.6,0.1
			c0.5-0.1,0.9-0.5,1.2-0.9c0.3-0.4,0.3-1,0.2-1.5C423.2,268.6,421.1,260,420,260.1z"/>
		<path class="st4" d="M406.1,262c-1.2,0.1-3,8.3-3.8,11.9c-0.1,0.5,0,1,0.3,1.5c0.3,0.4,0.8,0.7,1.3,0.8c1.6,0.5,3.4,0.5,5.1,0.1
			c0.5-0.1,1-0.4,1.3-0.9c0.3-0.4,0.4-1,0.3-1.5C409.6,270.4,407.3,261.9,406.1,262z"/>
		<path class="st4" d="M417.9,270.1c-0.7,0.1-1.8,4.9-2.2,7c0,0.3,0,0.6,0.2,0.9c0.2,0.3,0.4,0.4,0.7,0.5c1,0.3,2,0.3,3,0.1
			c0.3-0.1,0.6-0.3,0.7-0.5c0.2-0.3,0.2-0.6,0.2-0.9C420,275,418.6,270.1,417.9,270.1z"/>
		<path class="st5" d="M425.6,264.3c-1,0.1-2.4,5.8-3,8.3c0,0.2,0,0.4,0,0.6c0.1,0.2,0.1,0.4,0.3,0.5c0.1,0.2,0.3,0.3,0.4,0.4
			c0.2,0.1,0.4,0.2,0.5,0.2c1.3,0.3,2.7,0.4,4,0.1c0.2,0,0.4-0.1,0.6-0.2c0.2-0.1,0.3-0.2,0.4-0.4c0.1-0.2,0.2-0.3,0.2-0.5
			c0-0.2,0-0.4,0-0.6C428.4,270.1,426.5,264.2,425.6,264.3z"/>
		<g class="st6">
			<path d="M425.6,264.3c-1,0.1-2.4,5.8-3,8.3c0,0.2,0,0.4,0,0.6c0.1,0.2,0.1,0.4,0.3,0.5c0.1,0.2,0.3,0.3,0.4,0.4
				c0.2,0.1,0.4,0.2,0.5,0.2c1.3,0.3,2.7,0.4,4,0.1c0.2,0,0.4-0.1,0.6-0.2c0.2-0.1,0.3-0.2,0.4-0.4c0.1-0.2,0.2-0.3,0.2-0.5
				c0-0.2,0-0.4,0-0.6C428.4,270.1,426.5,264.2,425.6,264.3z"/>
		</g>
		<path class="st5" d="M435.1,261.3c-1.3,0.1-3.2,7.6-4,10.9c0,0.3,0,0.5,0,0.7c0.1,0.2,0.2,0.5,0.3,0.7c0.2,0.2,0.3,0.4,0.6,0.5
			c0.2,0.1,0.5,0.2,0.7,0.2c1.7,0.5,3.6,0.5,5.3,0.1c0.3,0,0.5-0.1,0.7-0.2c0.2-0.1,0.4-0.3,0.6-0.5c0.2-0.2,0.3-0.4,0.3-0.7
			c0.1-0.3,0.1-0.5,0-0.8C438.8,269.1,436.4,261.2,435.1,261.3z"/>
		<g class="st6">
			<path d="M435.1,261.3c-1.3,0.1-3.2,7.6-4,10.9c0,0.3,0,0.5,0,0.7c0.1,0.2,0.2,0.5,0.3,0.7c0.2,0.2,0.3,0.4,0.6,0.5
				c0.2,0.1,0.5,0.2,0.7,0.2c1.7,0.5,3.6,0.5,5.3,0.1c0.3,0,0.5-0.1,0.7-0.2c0.2-0.1,0.4-0.3,0.6-0.5c0.2-0.2,0.3-0.4,0.3-0.7
				c0.1-0.3,0.1-0.5,0-0.8C438.8,269.1,436.4,261.2,435.1,261.3z"/>
		</g>
		<path class="st4" d="M149.2,370c0,3.9-17.9,7-39.9,7c-22.1,0-39.9-3.1-39.9-7c0-0.5,0.1-3.8,0.1-3.8c3.7-3.2,20.5-3.2,39.8-3.2
			c19.1,0,36.1-0.9,39.9,3.2C149.2,366.3,149.2,369.5,149.2,370z"/>
		<path class="st5" d="M109.2,372.4c22.1,0,39.9-2.9,39.9-6.4s-17.9-6.4-39.9-6.4c-22.1,0-39.9,2.9-39.9,6.4S87.2,372.4,109.2,372.4
			z"/>
		<path class="st5" d="M103.5,339.2c-1.9,0.2-4.8,14.6-6,20.9c-0.2,0.9,0,1.8,0.5,2.5c0.5,0.8,1.2,1.3,2,1.6
			c2.6,0.9,5.4,0.9,8.1,0.2c0.9-0.2,1.6-0.8,2.1-1.6c0.5-0.8,0.6-1.7,0.4-2.6C109.1,354,105.4,339,103.5,339.2z"/>
		<path class="st5" d="M112.2,348c-1.3,0.1-3.2,9.7-4,13.9c-0.1,0.6,0,1.2,0.3,1.7c0.3,0.5,0.8,0.9,1.4,1c1.7,0.6,3.6,0.6,5.4,0.1
			c0.6-0.2,1.1-0.6,1.4-1.1c0.3-0.5,0.4-1.1,0.3-1.7C115.9,357.8,113.4,347.9,112.2,348z"/>
		<path class="st4" d="M95.9,350.2c-1.4,0.1-3.5,9.7-4.4,13.8c-0.1,0.6,0,1.2,0.4,1.7c0.3,0.5,0.9,0.9,1.5,1c1.9,0.6,4,0.6,5.9,0.1
			c0.6-0.1,1.1-0.5,1.5-1c0.3-0.5,0.4-1.2,0.3-1.8C100.1,360,97.4,350.1,95.9,350.2z"/>
		<path class="st4" d="M109.7,359.6c-0.8,0.1-2.1,5.7-2.6,8.1c-0.1,0.4,0,0.7,0.2,1c0.2,0.3,0.5,0.5,0.9,0.6
			c1.1,0.3,2.3,0.4,3.5,0.1c0.4-0.1,0.7-0.3,0.9-0.6c0.2-0.3,0.3-0.7,0.2-1C112.1,365.4,110.6,359.6,109.7,359.6z"/>
		<path class="st5" d="M118.7,352.8c-1.1,0.1-2.8,6.7-3.5,9.7c0,0.2,0,0.4,0,0.7c0.1,0.2,0.2,0.4,0.3,0.6c0.1,0.2,0.3,0.3,0.5,0.4
			c0.2,0.1,0.4,0.2,0.6,0.2c1.5,0.4,3.1,0.4,4.7,0.1c0.2,0,0.4-0.1,0.6-0.2c0.2-0.1,0.4-0.3,0.5-0.5c0.1-0.2,0.2-0.4,0.3-0.6
			c0.1-0.2,0.1-0.5,0-0.7C121.9,359.7,119.8,352.7,118.7,352.8z"/>
		<g class="st6">
			<path d="M118.7,352.8c-1.1,0.1-2.8,6.7-3.5,9.7c0,0.2,0,0.4,0,0.7c0.1,0.2,0.2,0.4,0.3,0.6c0.1,0.2,0.3,0.3,0.5,0.4
				c0.2,0.1,0.4,0.2,0.6,0.2c1.5,0.4,3.1,0.4,4.7,0.1c0.2,0,0.4-0.1,0.6-0.2c0.2-0.1,0.4-0.3,0.5-0.5c0.1-0.2,0.2-0.4,0.3-0.6
				c0.1-0.2,0.1-0.5,0-0.7C121.9,359.7,119.8,352.7,118.7,352.8z"/>
		</g>
		<path class="st5" d="M129.8,349.4c-1.5,0.1-3.7,8.9-4.6,12.8c-0.3,1.1,0.6,2.2,1.9,2.5c2,0.5,4.1,0.6,6.2,0.1
			c1.4-0.3,2.2-1.4,1.9-2.6C134.1,358.4,131.3,349.3,129.8,349.4z"/>
		<g class="st6">
			<path d="M129.8,349.4c-1.5,0.1-3.7,8.9-4.6,12.8c-0.3,1.1,0.6,2.2,1.9,2.5c2,0.5,4.1,0.6,6.2,0.1c1.4-0.3,2.2-1.4,1.9-2.6
				C134.1,358.4,131.3,349.3,129.8,349.4z"/>
		</g>
		<path class="st2" d="M380.7,108.2l-21.4,2.3v3.4c0,0,8.7,0.4,12.5,6.6h17.8c3.7-6.2,12.5-6.6,12.5-6.6v-3.4L380.7,108.2z"/>
		<g class="st6">
			<path d="M380.7,108.2l-21.4,2.3v3.4c0,0,8.7,0.4,12.5,6.6h17.8c3.7-6.2,12.5-6.6,12.5-6.6v-3.4L380.7,108.2z"/>
		</g>
		<path class="st2" d="M353.7,110.6h53.8l-9.9-7h-33.7L353.7,110.6z"/>
		<path class="st2" d="M374.3,97.8c-3.8,0.9-8.3,2.6-10.4,5.7h33.7c0,0-2.3-3.9-9.6-5.8C383.5,96.6,378.8,96.6,374.3,97.8z"/>
		<path class="st2" d="M413.1,113.2h-64.8v1.6h64.8V113.2z"/>
		<path class="st2" d="M395.8,120.6h-29.6v1.6h29.6V120.6z"/>
		<path class="st2" d="M372.8,122.1l4.7,4.7h6.1l5-4.7H372.8z"/>
		<path class="st4" d="M380.9,69.7c0.1,0,0.2,6.1,0.2,13.6c0,7.5-0.1,13.6-0.2,13.6c-0.1,0-0.2-6.1-0.2-13.6
			C380.6,75.7,380.7,69.7,380.9,69.7z"/>
		<path class="st2" d="M372.8,284.8c0,0,3.4-115.5,3.8-122.7c0.5-7.2,1.1-37,1.1-37h3.5l0.4,159.8L372.8,284.8z"/>
		<path class="st2" d="M389.8,284.8c0,0-4.6-115.5-5.1-122.7c-0.5-7.2-1.1-37-1.1-37h-3.5l0.9,159.9L389.8,284.8z"/>
		<path class="st4" d="M397.5,103.4c0,0.1-7.5,0.2-16.8,0.3c-9.3,0-16.8-0.1-16.8-0.2c0-0.1,7.5-0.2,16.8-0.3
			C390,103.2,397.5,103.2,397.5,103.4z"/>
		<path class="st4" d="M382.9,67.6c0,0-0.1-0.2-0.1-0.5c-0.1-0.4-0.4-0.8-0.8-1c-0.3-0.2-0.5-0.3-0.9-0.3c-0.3,0-0.6,0-0.9,0.1
			c-0.3,0.1-0.6,0.4-0.9,0.7c-0.2,0.3-0.3,0.7-0.3,1s0.1,0.7,0.3,1c0.2,0.3,0.5,0.5,0.9,0.7c0.3,0.1,0.6,0.2,0.9,0.1
			c0.3,0,0.6-0.2,0.9-0.3c0.4-0.2,0.6-0.6,0.8-1C382.8,67.8,382.9,67.6,382.9,67.6c0,0,0.1,0.2,0,0.5c-0.1,0.5-0.3,0.9-0.7,1.2
			c-0.3,0.2-0.6,0.4-1,0.5c-0.4,0.1-0.7,0-1.1-0.1c-0.4-0.2-0.8-0.4-1.1-0.8c-0.3-0.4-0.4-0.8-0.4-1.3c0-0.5,0.1-0.9,0.4-1.3
			c0.3-0.4,0.6-0.7,1.1-0.8c0.4-0.1,0.7-0.2,1.1-0.1c0.4,0.1,0.7,0.2,1,0.5c0.4,0.3,0.6,0.7,0.7,1.2C383,67.5,382.9,67.6,382.9,67.6
			z"/>
		<path class="st7" d="M391.8,102h-26.6c0.5-0.4,1-0.8,1.5-1.1l25.1-0.1V102z"/>
		<path class="st4" d="M404.2,108.2c-0.3,0.1-0.7,0.1-1,0.1l-2.8,0.1c-2.4,0-5.7,0.1-9.3,0.1h-6.3h-0.1l-0.1-0.1
			c-1.5-1.4-2.7-2.6-3.6-3.4c-0.5-0.4-0.9-0.9-1.3-1.4c0.5,0.4,1,0.8,1.5,1.2c0.9,0.8,2.2,1.9,3.7,3.3l-0.1-0.1h6.3
			c3.6,0,6.9,0,9.3,0.1l2.8,0.1C403.5,108.2,403.8,108.2,404.2,108.2z"/>
		<path class="st4" d="M395.9,122.2c0,0.1-6.7,0.2-14.9,0.2c-8.2,0-14.9-0.1-14.9-0.2c0-0.1,6.7-0.2,14.9-0.2
			C389.2,121.9,395.9,122,395.9,122.2z"/>
		<path class="st4" d="M395.9,120.5c0,0.1-6.7,0.2-14.9,0.2c-8.2,0-14.9-0.1-14.9-0.2c0-0.1,6.7-0.2,14.9-0.2
			C389.2,120.2,395.9,120.3,395.9,120.5z"/>
		<path class="st4" d="M389.8,284.8c0,0,0-0.3-0.1-0.8c-0.1-0.5-0.1-1.3-0.1-2.4c-0.1-2.1-0.2-5.2-0.4-9.2c-0.3-8-0.8-19.5-1.4-33.8
			c-1.1-28.6-2.7-68.1-4.4-111.9l0.2,0.2c-0.9-0.4-1.9-0.5-2.9-0.5c-1.1,0-2.1,0.3-3.1,0.7l0.1-0.2c-1.3,43.8-2.5,83.2-3.4,111.8
			c-0.5,14.3-0.8,25.8-1.1,33.7c-0.1,4-0.2,7.1-0.3,9.2c0,1-0.1,1.8-0.1,2.4c0,0.5,0,0.8,0,0.8s0-0.3,0-0.8s0-1.3,0-2.4
			c0.1-2.1,0.1-5.2,0.2-9.2c0.2-7.9,0.5-19.5,0.9-33.8c0.8-28.5,2-68,3.3-111.8v-0.1l0.1-0.1c1-0.5,2.1-0.7,3.2-0.8
			c1.1,0,2.2,0.1,3.2,0.5l0.1,0.1v0.2c1.7,43.8,3.2,83.3,4.3,111.9c0.5,14.3,0.9,25.8,1.2,33.8c0.1,4,0.2,7.1,0.3,9.2
			c0,1,0.1,1.8,0.1,2.4C389.8,284.6,389.8,284.8,389.8,284.8z"/>
		<path class="st2" d="M231.7,46.5l-27-17.9v61.2L228,70.3L231.7,46.5z"/>
		<path class="st4" d="M208.9,31.9c0.1,0,0.2,10.3,0.2,23c0,12.7-0.1,23-0.2,23s-0.2-10.3-0.2-23C208.6,42.2,208.7,31.9,208.9,31.9z
			"/>
		<path class="st4" d="M214.3,35.5c0.1,0,0.2,10.3,0.2,23c0,12.7-0.1,23.1-0.2,23.1c-0.1,0-0.2-10.3-0.2-23.1
			C214.1,45.8,214.2,35.5,214.3,35.5z"/>
		<path class="st4" d="M219.9,38.3c0.1,0,0.2,10.3,0.2,23c0,12.7-0.1,23-0.2,23s-0.2-10.3-0.2-23C219.6,48.6,219.7,38.3,219.9,38.3z
			"/>
		<path class="st4" d="M225.4,42c0.1,0,0.2,10.1,0.2,22.6c0,12.5-0.1,22.6-0.2,22.6c-0.1,0-0.2-10.1-0.2-22.6
			C225.2,52.1,225.2,42,225.4,42z"/>
		<path class="st7" d="M239.5,32.6c-1.9,0-46.1,38.9-42.4,118.9v158.9h42.4V32.6z"/>
		<path class="st4" d="M204.3,260.7c-0.1,0-0.2-37.6-0.2-83.9c0-46.3,0.1-83.9,0.2-83.9c0.1,0,0.2,37.6,0.2,83.9
			C204.6,223.2,204.5,260.7,204.3,260.7z"/>
		<g class="st6">
			<path d="M239.5,123.6c-1.7,0.1-23.3,20.2-23.3,20.2v125.1h23.3V123.6z"/>
		</g>
		<path class="st4" d="M225.4,254.8c-0.1,0-0.2-26.7-0.2-59.6s0.1-59.7,0.2-59.7c0.1,0,0.2,26.7,0.2,59.7
			C225.6,228.1,225.5,254.8,225.4,254.8z"/>
		<path class="st4" d="M230.7,249.9c-0.1,0-0.2-26.7-0.2-59.6s0.1-59.6,0.2-59.6c0.1,0,0.2,26.7,0.2,59.6
			C230.9,223.2,230.8,249.9,230.7,249.9z"/>
		<path class="st4" d="M236,245c-0.1,0-0.2-26.6-0.2-59.4c0-32.8,0.1-59.4,0.2-59.4c0.1,0,0.2,26.6,0.2,59.4
			C236.2,218.4,236.1,245,236,245z"/>
		<path class="st5" d="M239.5,100.4h-18.8v2.4h18.8V100.4z"/>
		<path class="st5" d="M239.5,105.6h-18.8v2.1h18.8V105.6z"/>
		<path class="st5" d="M239.5,110.9h-18.8v2.1h18.8V110.9z"/>
		<path class="st5" d="M219,105.6h-2.6v2.1h2.6V105.6z"/>
		<path class="st5" d="M215,105.6h-2.6v2.1h2.6V105.6z"/>
		<path class="st4" d="M232.7,39.2c0.1,0.5,0.1,1,0.1,1.5c0,1,0,2.4,0.1,4c0,3.4,0.1,8.1,0.1,13.3c0,3.9,0,7.5,0,10.5l-0.2-0.2h3.4
			h0.5v0.3h-0.5v-0.3h0.4h1.2l1.7,0.1c0.2,0,0.4,0,0.6,0.1c-0.2,0-0.4,0.1-0.6,0.1l-1.7,0.1h-1.2h-0.4v-0.3h0.5v0.3h-0.5h-3.4h-0.2
			v-0.2c0-3,0-6.6,0-10.5c0-5.2,0-9.9,0.1-13.3c0-1.6,0.1-3,0.1-4C232.6,40.1,232.6,39.6,232.7,39.2z"/>
		<path class="st5" d="M239.5,71.8h-6.4v2.4h6.4V71.8z"/>
		<path class="st4" d="M220.1,259.6c-0.1,0-0.2-26.7-0.2-59.6c0-32.9,0.1-59.6,0.2-59.6c0.1,0,0.2,26.7,0.2,59.6
			C220.3,233,220.2,259.6,220.1,259.6z"/>
		<path class="st2" d="M336.5,83.7c-1.5,0-37.8,31.9-34.7,97.5v130.2h34.7V83.7z"/>
		<path class="st4" d="M307.7,270.7c-0.1,0-0.2-30.8-0.2-68.8c0-38,0.1-68.8,0.2-68.8c0.1,0,0.2,30.8,0.2,68.8
			C307.9,240,307.8,270.7,307.7,270.7z"/>
		<path class="st5" d="M336.5,158.3c-1.4,0.1-19.1,16.5-19.1,16.5v102.6h19.1L336.5,158.3z"/>
		<path class="st5" d="M336.5,139.3H321v1.9h15.5V139.3z"/>
		<path class="st5" d="M336.5,143.6H321v1.7h15.5V143.6z"/>
		<path class="st5" d="M336.5,147.9H321v1.7h15.5V147.9z"/>
		<path class="st5" d="M319.7,143.6h-2.1v1.7h2.1V143.6z"/>
		<path class="st5" d="M316.4,143.6h-2.1v1.7h2.1V143.6z"/>
		<path class="st4" d="M330.9,89.1c0.1,0.4,0.1,0.8,0.1,1.2c0,0.9,0,2,0.1,3.3c0,2.8,0.1,6.6,0.1,10.9c0,3.2,0,6.1,0,8.6l-0.2-0.2
			h2.8h0.4v0.3h-0.4V113h0.3h1c0.6,0,1.3,0,1.9,0.1c-0.6,0.1-1.2,0.1-1.9,0.1h-1h-0.3v-0.3h0.4v0.3h-0.4h-2.8h-0.2V113
			c0-2.5,0-5.4,0-8.6c0-4.3,0-8.1,0.1-10.9c0-1.3,0.1-2.4,0.1-3.3C330.8,89.8,330.8,89.5,330.9,89.1z"/>
		<path class="st5" d="M336.5,115.9h-5.2v2h5.2V115.9z"/>
		<path class="st4" d="M271.5,93.1c0.1,0,0.2,5.1,0.2,11.5c0,6.3-0.1,11.4-0.2,11.4c-0.1,0-0.2-5.1-0.2-11.4
			C271.3,98.2,271.4,93.1,271.5,93.1z"/>
		<path class="st4" d="M277.7,63.2c0.1,0,0.2,11.8,0.2,26.4c0,14.6-0.1,26.4-0.2,26.4s-0.2-11.8-0.2-26.4
			C277.5,75,277.6,63.2,277.7,63.2z"/>
		<path class="st2" d="M286.9,114.6h-21.7v201.7h21.7V114.6z"/>
		<path class="st4" d="M286.9,299.2h-14.4V140.3l14.4-11.5V299.2z"/>
		<path class="st5" d="M286.4,151.4c-2.3,0.2-4.6,0.3-7,0.2c-2.3,0.1-4.7,0-7-0.2c2.3-0.2,4.6-0.3,7-0.2
			C281.8,151.1,284.1,151.1,286.4,151.4z"/>
		<path class="st5" d="M286.4,170.1c-2.3,0.2-4.6,0.3-7,0.2c-2.3,0.1-4.7,0-7-0.2c2.3-0.2,4.6-0.3,7-0.2
			C281.8,169.8,284.1,169.9,286.4,170.1z"/>
		<path class="st5" d="M286.4,188.9c-2.3,0.2-4.6,0.3-7,0.2c-2.3,0.1-4.7,0-7-0.2c2.3-0.2,4.6-0.3,7-0.2
			C281.8,188.6,284.1,188.6,286.4,188.9z"/>
		<path class="st5" d="M286.4,207.6c-2.3,0.2-4.6,0.3-7,0.2c-2.3,0.1-4.7,0-7-0.2c2.3-0.2,4.6-0.3,7-0.2
			C281.8,207.3,284.1,207.4,286.4,207.6z"/>
		<path class="st5" d="M286.4,226.4c-2.3,0.2-4.6,0.3-7,0.2c-2.3,0.1-4.7,0-7-0.2c2.3-0.2,4.6-0.3,7-0.2
			C281.8,226.1,284.1,226.2,286.4,226.4z"/>
		<path class="st5" d="M286.4,245.1c-2.3,0.2-4.6,0.3-7,0.2c-2.3,0.1-4.7,0-7-0.2c2.3-0.2,4.6-0.3,7-0.2
			C281.8,244.8,284.1,244.9,286.4,245.1z"/>
		<path class="st5" d="M286.4,263.9c-2.3,0.2-4.6,0.3-7,0.2c-2.3,0.1-4.7,0-7-0.2c2.3-0.2,4.6-0.3,7-0.2
			C281.8,263.6,284.1,263.7,286.4,263.9z"/>
		<path class="st5" d="M286.4,282.6c-2.3,0.2-4.6,0.3-7,0.2c-2.3,0.1-4.7,0-7-0.2c2.3-0.2,4.6-0.3,7-0.2
			C281.8,282.3,284.1,282.4,286.4,282.6z"/>
		<path class="st4" d="M279.7,61.8c0,0-0.1-0.2-0.2-0.5c-0.1-0.4-0.4-0.7-0.7-1c-0.2-0.2-0.5-0.3-0.8-0.3c-0.3,0-0.6,0-0.9,0.1
			c-0.4,0.1-0.7,0.3-0.9,0.6c-0.2,0.3-0.3,0.7-0.3,1s0.1,0.7,0.3,1c0.2,0.3,0.5,0.5,0.9,0.6c0.3,0.1,0.6,0.1,0.9,0.1
			c0.3,0,0.6-0.2,0.8-0.3c0.3-0.2,0.6-0.6,0.7-1C279.7,62,279.7,61.8,279.7,61.8c0,0,0.1,0.2,0,0.5c-0.1,0.5-0.3,0.9-0.7,1.2
			c-0.3,0.2-0.6,0.4-1,0.4c-0.4,0.1-0.7,0-1.1-0.1c-0.4-0.1-0.8-0.4-1.1-0.8c-0.3-0.4-0.4-0.8-0.4-1.3c0-0.5,0.1-0.9,0.4-1.3
			c0.3-0.4,0.6-0.6,1.1-0.8c0.3-0.1,0.7-0.2,1.1-0.1c0.4,0.1,0.7,0.2,1,0.4c0.4,0.3,0.6,0.7,0.7,1.2
			C279.8,61.6,279.8,61.8,279.7,61.8z"/>
		<path class="st4" d="M431.8,321.7c0,6.1-84.2,11-188.1,11s-188.1-4.9-188.1-11c0-0.8,0.5-6.1,0.5-6.1c17.4-5,96.5-5,187.6-5
			c90.1,0,169.9-1.4,187.8,5.1C431.8,315.9,431.8,320.9,431.8,321.7z"/>
		<path class="st5" d="M243.7,327.5c103.9,0,188.1-4.9,188.1-11s-84.2-11-188.1-11c-103.9,0-188.1,4.9-188.1,11
			S139.8,327.5,243.7,327.5z"/>
		<path class="st2" d="M93.2,188.3l-18.5,2v2.9c0,0,7.6,0.3,10.8,5.7h15.4c3.2-5.4,10.8-5.7,10.8-5.7v-2.9L93.2,188.3z"/>
		<g class="st6">
			<path d="M93.2,188.3l-18.5,2v2.9c0,0,7.6,0.3,10.8,5.7h15.4c3.2-5.4,10.8-5.7,10.8-5.7v-2.9L93.2,188.3z"/>
		</g>
		<path class="st2" d="M69.9,190.3h46.4l-8.6-6.1H78.7L69.9,190.3z"/>
		<path class="st2" d="M87.7,179.3c-3.3,0.8-7.2,2.3-9,4.9h29.1c0,0-2-3.4-8.3-5C95.6,178.3,91.5,178.3,87.7,179.3z"/>
		<path class="st2" d="M121.2,192.6h-56v1.4h56V192.6z"/>
		<path class="st2" d="M106.2,199H80.6v1.3h25.6V199z"/>
		<path class="st2" d="M86.4,200.3l4.1,4.1h5.3l4.3-4.1H86.4z"/>
		<path class="st4" d="M93.3,155c0.1,0,0.2,5.2,0.2,11.7c0,6.5-0.1,11.7-0.2,11.7c-0.1,0-0.2-5.2-0.2-11.7
			C93.1,160.2,93.2,155,93.3,155z"/>
		<path class="st2" d="M86.4,317.2c0,0,2.9-76.2,3.3-82.4c0.4-6.2,0.9-32,0.9-32h3.1L94,317.2L86.4,317.2z"/>
		<path class="st2" d="M101.1,317.2c0,0-4-76.2-4.4-82.4c-0.4-6.2-0.9-32-0.9-32h-3.1l0.8,114.4L101.1,317.2z"/>
		<path class="st4" d="M107.7,184.1c0,0.1-6.5,0.2-14.5,0.3c-8,0-14.5-0.1-14.5-0.2s6.5-0.2,14.5-0.3
			C101.2,183.9,107.7,184,107.7,184.1z"/>
		<path class="st4" d="M95.1,153.2c-0.1-0.5-0.4-0.9-0.8-1.3c-0.2-0.1-0.5-0.2-0.7-0.3c-0.3,0-0.5,0-0.8,0.1
			c-0.3,0.1-0.5,0.3-0.7,0.6c-0.2,0.3-0.3,0.6-0.3,0.9c0,0.3,0.1,0.6,0.3,0.9c0.2,0.3,0.4,0.5,0.7,0.6c0.2,0.1,0.5,0.1,0.8,0.1
			c0.3,0,0.5-0.1,0.7-0.3C94.7,154.2,95,153.7,95.1,153.2c0,0,0.1,0.2,0,0.4c-0.1,0.4-0.3,0.8-0.6,1.1c-0.2,0.2-0.5,0.3-0.9,0.4
			s-0.6,0-1-0.1c-0.4-0.1-0.7-0.4-1-0.7c-0.2-0.3-0.4-0.7-0.4-1.1c0-0.4,0.1-0.8,0.4-1.1c0.2-0.3,0.6-0.6,1-0.7
			c0.3-0.1,0.6-0.1,1-0.1c0.3,0.1,0.6,0.2,0.9,0.4c0.3,0.3,0.5,0.6,0.6,1.1C95.2,153.1,95.1,153.2,95.1,153.2z"/>
		<path class="st7" d="M102.8,182.9h-23c0.4-0.4,0.8-0.7,1.3-1l21.7-0.1L102.8,182.9z"/>
		<path class="st4" d="M113.5,188.3c-0.3,0.1-0.6,0.1-0.9,0.1l-2.4,0.1c-2.1,0-4.9,0.1-8.1,0.1h-5.5h-0.1l-0.1-0.1
			c-1.3-1.2-2.4-2.2-3.1-3c-0.4-0.4-0.8-0.8-1.1-1.2c0.5,0.3,0.9,0.6,1.3,1c0.8,0.7,1.9,1.7,3.2,2.8l-0.1-0.1h5.5c3.1,0,6,0,8.1,0.1
			c1,0,1.9,0,2.4,0.1C112.9,188.2,113.2,188.2,113.5,188.3z"/>
		<path class="st4" d="M106.3,200.3c0,0.1-5.8,0.2-12.9,0.2c-7.1,0-12.9-0.1-12.9-0.2c0-0.1,5.8-0.2,12.9-0.2
			C100.6,200.1,106.3,200.2,106.3,200.3z"/>
		<path class="st4" d="M106.3,198.9c0,0.1-5.8,0.2-12.9,0.2c-7.1,0-12.9-0.1-12.9-0.2c0-0.1,5.8-0.2,12.9-0.2
			C100.6,198.6,106.3,198.7,106.3,198.9z"/>
		<path class="st4" d="M95.8,204.3c0,0.1-1.2-0.3-2.7-0.2c-1.4,0.1-2.6,0.5-2.7,0.4c0.7-0.6,1.7-0.9,2.7-0.9
			C94.1,203.5,95,203.7,95.8,204.3z"/>
		<path class="st5" d="M156.2,258.6l41-11.6l-0.1,8.2l-40.9,13.1v-8.7"/>
		<path class="st4" d="M125.4,313.4h68.9l2.9-60.4l-43.7,12.6l-46.8,19.6l-3.3,8.9L125.4,313.4z"/>
		<path class="st4" d="M131,321.3c0,0-36.5-3.4-37.1-4S93.1,294,93.1,294l20.3,12.5L131,321.3z"/>
		<path class="st5" d="M152.5,317.6c0,0-30.7-9.7-41.9-22.3c0,0-5.8-6.8,6.2-12.6c9.4-4.5,54.2-19.4,54.2-19.4v-8.9
			c0,0-60.7,15.6-75,32.1c-5.5,6.3-2.7,12.3,0.6,15.7c12.7,13.3,34.4,19.1,34.4,19.1L152.5,317.6z"/>
		<path class="st2" d="M246.6,140.3l-54.5,43.5v15.9h11.2c14.6,0.4,30.2,14.4,30.2,33.2c0,17.6-13.1,31.4-30.2,33.2h-11.2v46.8
			l54.5,0.4c0.3-1,11.4-146.4,11.3-173.1H246.6z"/>
		<g class="st6">
			<path d="M246.6,140.3l-54.5,43.5v15.9h11.2c14.6,0.4,30.2,14.4,30.2,33.2c0,17.6-13.1,31.4-30.2,33.2h-11.2v46.8l54.5,0.4
				c0.3-1,11.4-146.4,11.3-173.1H246.6z"/>
		</g>
		<path class="st2" d="M210.6,266.9c4.8,0,9.5-1,13.9-2.9c4.4-1.9,8.3-4.8,11.5-8.3s5.6-7.7,7.1-12.3c1.5-4.6,2-9.4,1.4-14.1
			c-0.5-4.8-2-9.3-4.5-13.5c-2.4-4.1-5.7-7.7-9.6-10.5c-3.9-2.8-8.3-4.7-13-5.7c-4.7-1-9.5-0.9-14.2,0.1v-15.9l54.5-43.5
			c0,0,0.4,172,0,173.1l-54.5-0.4v-46.8C205.7,266.7,208.2,266.9,210.6,266.9z"/>
		<path class="st4" d="M236.4,148.5c0,0,0.2,0,0.7,0h2.1l8.3-0.1h0.1v0.1c0,14.7,0.1,43.6,0.1,76.8c0,24.3-0.1,46.3-0.1,62.2
			c0,7.9-0.1,14.4-0.1,18.9c0,2.2,0,3.9,0,5.1c0-1.2,0-2.9,0-5.1c0-4.5,0-10.9-0.1-18.9c0-15.9,0-37.9-0.1-62.2
			c0-33.3,0.1-62.2,0.1-76.8l0.1,0.1l-8.3-0.1h-2.1C236.6,148.5,236.4,148.5,236.4,148.5z"/>
		<path class="st4" d="M257.9,191.7c0,0.1-14.7,0.2-32.9,0.2c-18.2,0-32.9-0.1-32.9-0.2c0-0.1,14.7-0.2,32.9-0.2
			C243.2,191.5,257.9,191.6,257.9,191.7z"/>
		<path class="st4" d="M231.9,290.3h9.1v-0.9h-9.1V290.3z"/>
		<path class="st4" d="M231.9,292.3h9.1v-0.9h-9.1V292.3z"/>
		<path class="st4" d="M231.9,294.3h9.1v-0.9h-9.1V294.3z"/>
		<path class="st4" d="M231.9,296.3h9.1v-0.9h-9.1V296.3z"/>
		<path class="st4" d="M231.9,298.2h9.1v-0.9h-9.1V298.2z"/>
		<path class="st4" d="M231.9,300.2h9.1v-0.9h-9.1V300.2z"/>
		<path class="st4" d="M231.9,302.2h9.1v-0.9h-9.1V302.2z"/>
		<path class="st4" d="M231.9,304.2h9.1v-0.9h-9.1V304.2z"/>
		<path class="st4" d="M231.9,196.4h9.1v-0.9h-9.1V196.4z"/>
		<path class="st4" d="M231.9,198.4h9.1v-0.9h-9.1V198.4z"/>
		<path class="st4" d="M231.9,200.3h9.1v-0.9h-9.1V200.3z"/>
		<path class="st4" d="M231.9,202.3h9.1v-0.9h-9.1V202.3z"/>
		<path class="st5" d="M192.1,185.4h26.5v-1.6h-26.5V185.4z"/>
		<path class="st4" d="M203,266c-1.8,0.2-3.6,0.3-5.5,0.2c-1.8,0.1-3.6,0-5.5-0.2c1.8-0.2,3.6-0.3,5.5-0.2
			C199.4,265.7,201.2,265.7,203,266z"/>
		<path class="st5" d="M258,209.4h-5.2v2.5h5.2V209.4z"/>
		<path class="st5" d="M258,217.4h-5.2v2.5h5.2V217.4z"/>
		<path class="st5" d="M258,225.4h-5.2v2.5h5.2V225.4z"/>
		<path class="st5" d="M258,233.4h-5.2v2.5h5.2V233.4z"/>
		<path class="st5" d="M258,241.3h-5.2v2.5h5.2V241.3z"/>
		<path class="st5" d="M258,249.3h-5.2v2.5h5.2V249.3z"/>
		<path class="st5" d="M258,257.3h-5.2v2.5h5.2V257.3z"/>
		<path class="st5" d="M258,265.3h-5.2v2.5h5.2V265.3z"/>
		<path class="st5" d="M258,273.3h-5.2v2.5h5.2V273.3z"/>
		<path class="st2" d="M145.8,135.7l-21.4,2.3v3.4c0,0,8.7,0.4,12.5,6.6h17.8c3.7-6.2,12.5-6.6,12.5-6.6v-3.4L145.8,135.7z"/>
		<g class="st6">
			<path d="M145.8,135.7l-21.4,2.3v3.4c0,0,8.7,0.4,12.5,6.6h17.8c3.7-6.2,12.5-6.6,12.5-6.6v-3.4L145.8,135.7z"/>
		</g>
		<path class="st2" d="M118.7,138.1h53.8l-9.9-7h-33.7L118.7,138.1z"/>
		<path class="st2" d="M139.4,125.3c-3.8,0.9-8.3,2.6-10.4,5.7h33.7c0,0-2.3-3.9-9.6-5.8C148.5,124.1,143.8,124.1,139.4,125.3z"/>
		<path class="st2" d="M178.1,140.7h-64.8v1.6h64.8V140.7z"/>
		<path class="st2" d="M160.8,148.1h-29.6v1.6h29.6V148.1z"/>
		<path class="st2" d="M137.9,149.6l4.7,4.7h6.1l5-4.7H137.9z"/>
		<path class="st4" d="M145.9,97.2c0.1,0,0.2,6.1,0.2,13.6c0,7.5-0.1,13.6-0.2,13.6c-0.1,0-0.2-6.1-0.2-13.6
			C145.7,103.2,145.8,97.2,145.9,97.2z"/>
		<path class="st2" d="M137.9,312.3c0,0,3.4-115.5,3.8-122.7c0.5-7.2,1.1-37,1.1-37h3.5l0.4,159.8L137.9,312.3z"/>
		<path class="st2" d="M154.9,312.3c0,0-4.6-115.5-5.1-122.7c-0.5-7.2-1.1-37-1.1-37h-3.5l0.9,159.9L154.9,312.3z"/>
		<path class="st4" d="M162.5,130.9c0,0.1-7.5,0.2-16.8,0.3c-9.3,0-16.8-0.1-16.8-0.2s7.5-0.2,16.8-0.3
			C155,130.7,162.5,130.7,162.5,130.9z"/>
		<path class="st4" d="M147.9,95.1c0,0-0.1-0.2-0.1-0.5c-0.1-0.4-0.4-0.8-0.8-1c-0.3-0.2-0.5-0.3-0.9-0.3c-0.3,0-0.6,0-0.9,0.1
			c-0.3,0.1-0.6,0.4-0.9,0.7c-0.2,0.3-0.3,0.7-0.3,1s0.1,0.7,0.3,1c0.2,0.3,0.5,0.5,0.9,0.7c0.3,0.1,0.6,0.2,0.9,0.1
			c0.3,0,0.6-0.2,0.9-0.3c0.4-0.2,0.6-0.6,0.8-1C147.9,95.3,147.9,95.1,147.9,95.1c0,0,0.1,0.2,0,0.5c-0.1,0.5-0.3,0.9-0.7,1.2
			c-0.3,0.2-0.6,0.4-1,0.5c-0.4,0.1-0.7,0-1.1-0.1c-0.4-0.2-0.8-0.4-1.1-0.8c-0.3-0.4-0.4-0.8-0.4-1.3c0-0.5,0.1-0.9,0.4-1.3
			c0.3-0.4,0.6-0.7,1.1-0.8c0.4-0.1,0.7-0.2,1.1-0.1c0.4,0.1,0.7,0.2,1,0.5c0.4,0.3,0.6,0.7,0.7,1.2C148,94.8,148,95,147.9,95.1z"/>
		<path class="st7" d="M156.9,129.5h-26.6c0.5-0.4,1-0.8,1.5-1.1l25.1-0.1V129.5z"/>
		<path class="st4" d="M169.2,135.7c-0.3,0.1-0.7,0.1-1,0.1l-2.8,0.1c-2.4,0-5.7,0.1-9.3,0.1h-6.3h-0.1l-0.1-0.1
			c-1.5-1.4-2.7-2.6-3.6-3.4c-0.5-0.4-0.9-0.9-1.3-1.4c0.5,0.3,1,0.7,1.5,1.2c0.9,0.8,2.2,1.9,3.7,3.3l-0.1-0.1h6.3
			c3.6,0,6.9,0,9.3,0.1l2.8,0.1C168.5,135.7,168.9,135.7,169.2,135.7z"/>
		<path class="st4" d="M160.9,149.6c0,0.1-6.7,0.2-14.9,0.2c-8.2,0-14.9-0.1-14.9-0.2c0-0.1,6.7-0.2,14.9-0.2
			S160.9,149.5,160.9,149.6z"/>
		<path class="st4" d="M160.9,148c0,0.1-6.7,0.2-14.9,0.2c-8.2,0-14.9-0.1-14.9-0.2c0-0.1,6.7-0.2,14.9-0.2S160.9,147.8,160.9,148z"
			/>
		<path class="st4" d="M154.9,312.3c0,0,0-0.3-0.1-0.8s-0.1-1.3-0.1-2.4c-0.1-2.1-0.2-5.2-0.4-9.2c-0.3-8-0.8-19.5-1.4-33.8
			c-1.1-28.6-2.7-68.1-4.4-111.9l0.2,0.2c-0.9-0.4-1.9-0.5-2.9-0.5c-1.1,0-2.1,0.3-3.1,0.7l0.1-0.2c-1.3,43.8-2.5,83.2-3.4,111.8
			c-0.5,14.3-0.8,25.8-1.1,33.7c-0.1,4-0.2,7.1-0.3,9.2c0,1-0.1,1.8-0.1,2.4c0,0.5,0,0.8,0,0.8s0-0.3,0-0.8s0-1.3,0-2.4
			c0.1-2.1,0.1-5.2,0.2-9.2c0.2-7.9,0.5-19.5,0.9-33.8c0.8-28.5,2-68,3.3-111.8v-0.1l0.1-0.1c1-0.5,2.2-0.8,3.3-0.8
			c1,0,2.1,0.2,3.1,0.5l0.1,0.1v0.1c1.7,43.8,3.2,83.3,4.3,111.9c0.5,14.3,0.9,25.8,1.2,33.8c0.1,4,0.2,7.1,0.3,9.2
			c0,1,0.1,1.8,0.1,2.4C154.8,312.1,154.9,312.3,154.9,312.3z"/>
		<path class="st2" d="M388.8,207.1L333.7,247V313h55.1c0.2-0.6,8.2-86.5,8.2-105.9L388.8,207.1z M360.2,284.9c-1.3,0-2.7-0.1-4-0.4
			v-0.1c-9.5-1.8-14.4-10.1-14.4-20.1c0-9.8,4.7-18.1,14-20.1c1.5-0.3,2.9-0.5,4.4-0.5c5.4,0.1,10.5,2.3,14.3,6.2
			c3.8,3.8,5.9,9,5.9,14.4c0,5.4-2.1,10.6-5.9,14.4C370.7,282.5,365.6,284.7,360.2,284.9L360.2,284.9z"/>
		<g class="st6">
			<path d="M388.8,207.1L333.7,247V313h55.1c0.2-0.6,8.2-86.5,8.2-105.9L388.8,207.1z M360.2,284.9c-1.3,0-2.7-0.1-4-0.4v-0.1
				c-9.5-1.8-14.4-10.1-14.4-20.1c0-9.8,4.7-18.1,14-20.1c1.5-0.3,2.9-0.5,4.4-0.5c5.4,0.1,10.5,2.3,14.3,6.2
				c3.8,3.8,5.9,9,5.9,14.4c0,5.4-2.1,10.6-5.9,14.4C370.7,282.5,365.6,284.7,360.2,284.9L360.2,284.9z"/>
		</g>
		<path class="st2" d="M397,207.1L341.8,247V313H397C397.2,312.3,397,207.1,397,207.1z M368.4,284.9c-1.3,0-2.7-0.1-4-0.4v-0.1
			c-4.6-0.9-8.8-3.4-11.9-7c-3-3.6-4.7-8.2-4.8-12.9c-0.1-4.7,1.5-9.3,4.5-13c2.9-3.7,7.1-6.3,11.7-7.3c1.5-0.3,2.9-0.5,4.4-0.5
			c2.7-0.1,5.5,0.4,8,1.4c2.6,1,4.9,2.5,6.8,4.4c2,1.9,3.5,4.2,4.6,6.7c1.1,2.5,1.6,5.2,1.6,8c0,2.7-0.5,5.5-1.6,8
			c-1.1,2.5-2.6,4.8-4.6,6.7c-2,1.9-4.3,3.4-6.8,4.4C373.9,284.4,371.1,284.9,368.4,284.9L368.4,284.9z"/>
		<path class="st4" d="M380.8,213.1c0,0,0.1,0,0.2,0h0.5h1.9l7.3-0.1h0.1v0.1c0,9.9,0.1,26.3,0.1,45c0,15.1-0.1,28.8-0.1,38.8
			c0,4.9-0.1,8.9-0.1,11.7c0,1.4,0,2.4,0,3.2c0,0.4,0,0.6,0,0.8c0,0.1,0,0.2,0,0.3c0-0.1,0-0.2,0-0.3c0-0.2,0-0.5,0-0.8
			c0-0.8,0-1.8,0-3.2c0-2.8,0-6.8-0.1-11.7c0-9.9,0-23.6-0.1-38.8c0-18.6,0.1-35.1,0.1-45l0.1,0.1l-7.3-0.1h-1.9h-0.5L380.8,213.1z"
			/>
		<path class="st4" d="M344.9,239.3c0-0.1,11.7-0.2,26.1-0.2c14.4,0,26.1,0.1,26.1,0.2c0,0.1-11.7,0.2-26.1,0.2
			C356.6,239.5,344.9,239.4,344.9,239.3z"/>
		<path class="st4" d="M381.2,299h5.5v-0.6h-5.5V299z"/>
		<path class="st4" d="M381.2,300.2h5.5v-0.6h-5.5V300.2z"/>
		<path class="st4" d="M381.2,301.4h5.5v-0.6h-5.5V301.4z"/>
		<path class="st4" d="M381.2,302.6h5.5V302h-5.5V302.6z"/>
		<path class="st4" d="M381.2,303.8h5.5v-0.6h-5.5V303.8z"/>
		<path class="st4" d="M381.2,305h5.5v-0.6h-5.5V305z"/>
		<path class="st4" d="M381.2,306.2h5.5v-0.6h-5.5V306.2z"/>
		<path class="st4" d="M381.2,307.4h5.5v-0.6h-5.5V307.4z"/>
		<path class="st4" d="M381.2,242.1h5.5v-0.6h-5.5V242.1z"/>
		<path class="st4" d="M381.2,243.3h5.5v-0.6h-5.5V243.3z"/>
		<path class="st4" d="M381.2,244.5h5.5V244h-5.5V244.5z"/>
		<path class="st4" d="M381.2,245.7h5.5v-0.6h-5.5V245.7z"/>
		<path class="st5" d="M344.8,248.5h-11.2v1.5h11.2V248.5z"/>
		<path class="st5" d="M344.8,253.3h-11.2v1.5h11.2V253.3z"/>
		<path class="st5" d="M344.8,258.2h-11.2v1.5h11.2V258.2z"/>
		<path class="st5" d="M344.8,263h-11.2v1.5h11.2V263z"/>
		<path class="st5" d="M344.8,267.8h-11.2v1.5h11.2V267.8z"/>
		<path class="st5" d="M344.8,272.7h-11.2v1.5h11.2V272.7z"/>
		<path class="st5" d="M344.8,277.5h-11.2v1.5h11.2V277.5z"/>
		<path class="st5" d="M344.8,282.4h-11.2v1.5h11.2V282.4z"/>
		<path class="st5" d="M344.8,287.2h-11.2v1.5h11.2V287.2z"/>
		<path class="st7" d="M175.3,229.2l3.6-47.8h-6.2l-21.4,11.5v16.4L175.3,229.2z"/>
		<g class="st6">
			<path d="M175.3,229.2l3.6-47.8h-6.2l-21.4,11.5v16.4L175.3,229.2z"/>
		</g>
		<path class="st7" d="M178.8,229.2v-47.8L156.2,193l0.1,18L178.8,229.2z"/>
		<path class="st7" d="M152.9,208.1H147v104.7h5.9V208.1z"/>
		<path class="st7" d="M152.9,208.1v104.6l28.9,0.6v-81.7L152.9,208.1z"/>
		<g class="st6">
			<path d="M181.8,236.6c0,0-21.7,7.5-20.8,34.5c0.9,26.9,20.9,30.2,20.9,30.2L181.8,236.6z"/>
		</g>
		<path class="st4" d="M178.1,300.3c-0.1,0-0.2-13.7-0.2-30.5c0-16.8,0.1-30.5,0.2-30.5c0.1,0,0.2,13.7,0.2,30.5
			C178.3,286.6,178.2,300.3,178.1,300.3z"/>
		<path class="st4" d="M173.3,295.9c-0.1,0-0.2-12.1-0.2-27.1c0-15,0.1-27.1,0.2-27.1c0.1,0,0.2,12.1,0.2,27.1
			C173.6,283.8,173.5,295.9,173.3,295.9z"/>
		<path class="st4" d="M168.6,292.2c-0.1,0-0.2-10-0.2-22.3c0-12.3,0.1-22.3,0.2-22.3c0.1,0,0.2,10,0.2,22.3
			C168.8,282.2,168.7,292.2,168.6,292.2z"/>
		<path class="st4" d="M163.9,284.3c-0.1,0-0.2-6.7-0.2-15c0-8.3,0.1-15,0.2-15c0.1,0,0.2,6.7,0.2,15
			C164.1,277.6,164,284.3,163.9,284.3z"/>
		<path class="st8" d="M168.6,232.1H147v2.5h21.6V232.1z"/>
		<path class="st8" d="M157.8,236.4H147v2.5h10.8V236.4z"/>
		<g class="st6">
			<path d="M152.9,208.1H147v104.7h5.9V208.1z"/>
		</g>
		<path class="st4" d="M147,208.1c0.1,0,0.3,0,0.4,0h1.2l4.3-0.1h0.1c3.1,2.4,7.4,5.9,12.2,9.8c4.6,3.8,8.8,7.2,11.8,9.7l3.5,3
			l0.9,0.8c0.2,0.2,0.3,0.3,0.3,0.3c-0.1-0.1-0.3-0.1-0.4-0.2l-1-0.8l-3.6-2.9c-3.1-2.4-7.2-5.8-11.9-9.6c-4.8-3.9-9.1-7.5-12.1-9.9
			h0.1l-4.3,0l-1.2,0C147.3,208.2,147.2,208.1,147,208.1z"/>
		<path class="st4" d="M156.2,192.9c-1.6,0.3-3.3,0.3-4.9,0c0.8-0.2,1.6-0.3,2.5-0.2C154.5,192.6,155.4,192.7,156.2,192.9z"/>
		<path class="st8" d="M178.8,217.4h-4.5v-22.1l4.5-2.7V217.4z"/>
		<path class="st8" d="M161.5,236.4H159v2.5h2.5V236.4z"/>
		<path class="st4" d="M301.3,171.8c-0.1,0.1-0.3,0.1-0.4,0.1l-1.3,0.3l-4.6,1l-15.3,3.5l-15.3,3.5l-4.7,1.1l-1.3,0.3
			c-0.1,0-0.3,0.1-0.5,0.1c0.1-0.1,0.3-0.1,0.4-0.2l1.3-0.3l4.6-1.2c3.9-1,9.3-2.3,15.3-3.7c6-1.4,11.4-2.5,15.4-3.3
			c2-0.4,3.5-0.7,4.7-0.9l1.3-0.2C301,171.8,301.1,171.8,301.3,171.8z"/>
		<path class="st4" d="M192.1,199.8c-0.6,0.3-1.2,0.6-1.8,0.8c-1.1,0.4-2.7,1-4.5,1.5c-1.8,0.6-3.4,1.1-4.6,1.4
			c-0.6,0.2-1.3,0.4-1.9,0.5c0.6-0.3,1.2-0.6,1.8-0.8c1.1-0.4,2.8-1,4.5-1.5s3.4-1.1,4.6-1.4C190.8,200.1,191.5,199.9,192.1,199.8z"
			/>
		<path class="st4" d="M140,218.4c0,0-0.4,0.2-1.1,0.5l-3.3,1.4c-2.9,1.3-7.2,3.1-12.6,5.8c-2.7,1.3-5.7,2.9-8.8,4.7
			c-3.5,1.9-6.7,4.2-9.8,6.7c-1.6,1.4-3.2,3-4,5.1c-0.2,0.5-0.3,1.1-0.3,1.6c0,0.6,0.2,1.1,0.5,1.6c0.7,1,1.6,1.7,2.7,2.2
			c2.3,1,4.7,1.7,7.1,2c2.6,0.4,5.2,0.6,7.8,0.7c10.8,0.4,22.6-0.4,35.1-1.8c12.6-1.3,26-3.3,40-5.8c28-4.9,58.6-11.6,90.4-20
			c31.8-8.4,61.7-17.7,88.3-28c6.6-2.6,13-5.2,19.2-8c6-2.7,11.8-5.6,17.4-9c2.7-1.6,5.2-3.4,7.6-5.3c1.1-1,2.2-2.1,3.1-3.2
			c0.5-0.5,0.8-1.2,1-1.9c0.2-0.7,0.3-1.4,0.2-2.1c0-0.2-0.1-0.3-0.1-0.5c-0.1-0.2-0.1-0.3-0.2-0.5c-0.2-0.3-0.4-0.6-0.6-0.8
			c-0.2-0.3-0.5-0.5-0.8-0.7l-0.4-0.3l-0.5-0.3c-1.2-0.7-2.6-1.2-3.9-1.5c-2.7-0.7-5.4-1.1-8.1-1.3c-5.1-0.4-10.2-0.4-15.3-0.2
			c-4.8,0.2-9.4,0.5-13.7,0.8c-8.5,0.7-15.8,1.6-21.8,2.4c-6,0.8-10.6,1.5-13.7,1.9l-3.5,0.5c-0.8,0.1-1.2,0.2-1.2,0.2l1.2-0.2
			l3.5-0.6c3.1-0.5,7.8-1.2,13.7-2c6-0.8,13.3-1.7,21.8-2.5c4.3-0.4,8.8-0.7,13.7-0.9c5.1-0.2,10.3-0.2,15.4,0.2
			c2.8,0.2,5.5,0.6,8.2,1.3c1.4,0.3,2.8,0.8,4,1.5l0.5,0.3l0.4,0.3c0.3,0.2,0.6,0.5,0.8,0.7c0.3,0.3,0.5,0.6,0.7,0.9
			c0.1,0.2,0.1,0.3,0.2,0.5c0.1,0.2,0.1,0.4,0.2,0.6c0.1,0.8,0,1.5-0.2,2.3c-0.3,0.7-0.6,1.4-1.1,2c-0.9,1.2-2,2.3-3.1,3.3
			c-2.4,2-5,3.8-7.6,5.4c-5.6,3.3-11.5,6.3-17.4,9c-6.1,2.8-12.6,5.5-19.2,8c-26.5,10.3-56.5,19.6-88.3,28s-62.4,15.2-90.5,20
			c-14,2.4-27.4,4.4-40,5.7c-12.6,1.3-24.4,2.2-35.2,1.7c-2.6-0.1-5.3-0.3-7.9-0.7c-2.5-0.3-4.9-1-7.2-2c-1.1-0.5-2.1-1.3-2.8-2.3
			c-0.3-0.5-0.5-1.1-0.5-1.7c0-0.6,0.1-1.2,0.3-1.8c0.9-2,2.3-3.8,4.1-5.2c3.1-2.5,6.4-4.8,9.9-6.7c3.2-1.8,6.2-3.4,8.8-4.7
			c5.4-2.6,9.7-4.5,12.6-5.7l3.3-1.4L140,218.4z"/>
		<path class="st5" d="M309.9,215.8l-24.2,6.9c-0.2,0.1-0.5,0.1-0.8,0.1c-0.3,0-0.5-0.1-0.7-0.2c-0.2-0.1-0.4-0.3-0.6-0.5
			c-0.2-0.2-0.3-0.4-0.4-0.7c-0.1-0.2-0.1-0.5-0.1-0.8c0-0.3,0.1-0.5,0.2-0.7c0.1-0.2,0.3-0.4,0.5-0.6c0.2-0.2,0.4-0.3,0.7-0.4
			l24.2-6.9c0.2-0.1,0.5-0.1,0.8-0.1c0.3,0,0.5,0.1,0.7,0.2c0.2,0.1,0.4,0.3,0.6,0.5s0.3,0.4,0.3,0.7c0.1,0.5,0.1,1-0.2,1.5
			S310.4,215.7,309.9,215.8z"/>
		<path class="st2" d="M403.2,161.6c-12.7-0.7-26,1.2-38.6,2.6c-2.1,0.2-3.7-1.9-3.8-3.8c-0.1-2.2,1.8-3.6,3.8-3.8
			c2-0.2,3.9-0.4,5.8-0.6c7-0.7,14-1.2,21-1.4c5.2-0.2,10.4,0,15.6,0.5c6,0.7,16.3,2.1,16.6,10c0.1,2.8-1.5,5.3-3.2,7.3
			c-2.3,2.4-4.8,4.5-7.6,6.3c-8.3,5.6-17.7,9.8-26.9,13.7c-13.7,5.8-27.6,11-41.7,15.7c-2,0.7-4.1-0.8-4.7-2.6c-0.2-1-0.1-2,0.4-2.9
			c0.5-0.9,1.3-1.5,2.3-1.8c1.9-0.6,3.8-1.3,5.7-1.9c6.9-2.4,13.8-4.9,20.6-7.5c3.1-1.2,6.2-2.4,9.2-3.7l2.4-1l0.5-0.2
			c-0.1,0-0.7,0.3-0.1,0l0.9-0.4c1.4-0.6,2.8-1.2,4.2-1.8c0,0,17.1-8.1,22.1-11.5c4.5-3,8.3-5.5,7.4-8
			C414,162.2,403.2,161.6,403.2,161.6z"/>
		<path class="st4" d="M403.2,161.6c0,0,0.3,0,1,0.1c0.6,0.1,1.6,0.1,2.9,0.3c1.6,0.2,3.1,0.5,4.6,0.9c1,0.2,1.9,0.6,2.7,1.2
			c0.2,0.2,0.4,0.4,0.6,0.6c0.2,0.2,0.3,0.5,0.3,0.8c0.1,0.6-0.1,1.2-0.4,1.7c-0.7,1.1-1.6,2-2.7,2.7c-1,0.8-2.2,1.6-3.4,2.4
			c-2.6,1.7-5.4,3.3-8.2,4.7c-3,1.6-6.3,3.2-9.7,4.9l-5.3,2.6l-2.8,1.2l-1.4,0.6l-0.7,0.3l-0.2,0.1h-0.1h0c0,0.1-0.3-0.6-0.1-0.3
			l0.4-0.1l0.2,0.3c-3.1,1.3-6.4,2.6-9.8,4l-2.6,1l-2.7,1l-5.4,2l-11.3,4.1c-1.9,0.7-3.9,1.4-5.9,2c-0.5,0.1-1,0.3-1.4,0.6
			c-0.4,0.3-0.8,0.6-1.1,1c-0.3,0.4-0.6,0.8-0.7,1.3c-0.1,0.5-0.1,1,0,1.5c0.3,1,0.9,1.9,1.8,2.4c0.4,0.3,0.9,0.4,1.5,0.5
			c0.5,0,1,0,1.5-0.2l6.3-2.2c4.3-1.5,8.6-3,12.9-4.6c8.7-3.2,17.7-6.8,26.6-10.8c5-2.2,9.9-4.5,14.5-7.1c2.3-1.3,4.6-2.6,6.8-4
			c2.2-1.4,4.3-2.9,6.2-4.6c1.9-1.6,3.5-3.6,4.7-5.8c0.6-1.1,0.9-2.3,0.9-3.5c0-0.3,0-0.6-0.1-0.9c0-0.3-0.1-0.6-0.1-0.9l-0.3-0.9
			c-0.1-0.3-0.2-0.6-0.4-0.8c-0.3-0.5-0.6-1-1-1.5c-0.4-0.4-0.9-0.8-1.3-1.2c-1-0.7-2-1.3-3.1-1.8c-2.2-0.9-4.5-1.4-6.9-1.8
			c-4.5-0.7-9.1-1-13.7-1c-4.5,0-8.8,0.2-13,0.4c-4.1,0.2-8.2,0.6-12.1,1l-5.7,0.6c-0.5,0.1-0.9,0.1-1.4,0.2
			c-0.4,0.1-0.9,0.2-1.3,0.4c-0.8,0.4-1.4,1-1.8,1.8c-0.3,0.8-0.3,1.6-0.1,2.5c0.2,0.8,0.7,1.5,1.4,2c0.3,0.2,0.7,0.4,1.1,0.5
			c0.4,0.1,0.8,0.1,1.2,0l2.4-0.3l9-1c5.6-0.6,10.5-1,14.5-1.2c4-0.2,7.1-0.2,9.2-0.1c2.1,0.1,3.2,0.2,3.2,0.2s-0.3,0-0.8,0
			c-0.5,0-1.3-0.1-2.4-0.1c-2.1,0-5.2,0-9.2,0.2s-8.8,0.6-14.5,1.3l-9,1.1l-2.4,0.3c-0.4,0.1-0.9,0.1-1.3,0
			c-0.4-0.1-0.8-0.3-1.2-0.6c-0.7-0.6-1.2-1.3-1.5-2.2c-0.3-0.9-0.3-1.8,0.1-2.6c0.4-0.9,1.1-1.5,2-1.9c0.4-0.2,0.9-0.3,1.4-0.4
			c0.5-0.1,0.9-0.1,1.4-0.2l5.7-0.6c3.9-0.4,8-0.7,12.1-1c4.2-0.3,8.5-0.4,13-0.4c4.6,0,9.2,0.4,13.8,1c2.4,0.3,4.7,0.9,7,1.8
			c1.1,0.4,2.2,1,3.2,1.8c0.5,0.4,1,0.8,1.4,1.2c0.4,0.5,0.8,1,1.1,1.6c0.2,0.3,0.3,0.6,0.4,0.9l0.3,0.9c0.1,0.3,0.1,0.6,0.2,0.9
			c0,0.3,0.1,0.6,0.1,1c0,1.3-0.3,2.6-0.9,3.7c-1.2,2.3-2.9,4.3-4.8,5.9c-2,1.7-4.1,3.2-6.3,4.6c-2.2,1.4-4.5,2.8-6.8,4.1
			c-4.7,2.6-9.5,4.9-14.5,7.1c-9,4-17.9,7.5-26.7,10.8c-4.4,1.6-8.7,3.2-13,4.6l-6.4,2.2c-0.5,0.2-1.1,0.3-1.7,0.3
			c-0.6-0.1-1.1-0.2-1.6-0.5c-1-0.6-1.7-1.6-2-2.7c-0.1-0.6-0.1-1.1,0-1.7s0.4-1.1,0.8-1.5c0.4-0.4,0.8-0.8,1.3-1.1
			c0.5-0.2,1-0.4,1.5-0.6c2-0.7,4-1.3,5.9-2l11.3-4.1l5.4-2l2.7-1l2.6-1c3.4-1.4,6.7-2.6,9.8-3.9l0.2,0.3l-0.4,0.2
			c0.1,0.3-0.2-0.4-0.1-0.3h0h0.1l0.2-0.1l0.7-0.3l1.4-0.6l2.8-1.2l5.3-2.6c3.5-1.7,6.7-3.3,9.7-4.9c2.8-1.4,5.6-3,8.2-4.7
			c1.2-0.8,2.4-1.6,3.4-2.4c1-0.7,1.9-1.6,2.6-2.6c0.3-0.5,0.5-1,0.4-1.6c0-0.3-0.1-0.5-0.3-0.7c-0.2-0.2-0.3-0.4-0.6-0.5
			c-0.8-0.5-1.7-0.9-2.7-1.2c-1.5-0.4-3-0.7-4.6-0.9c-1.2-0.2-2.2-0.3-2.9-0.3L403.2,161.6z"/>
		<path class="st4" d="M363.2,156.8c0,0,0.5,0.2,1,0.8c0.6,0.8,1.1,1.7,1.2,2.7c0.1,1,0,2-0.5,3c-0.3,0.7-0.7,1-0.7,1
			c0.1-0.4,0.3-0.8,0.4-1.1c0.3-0.9,0.4-1.8,0.3-2.8c-0.1-0.9-0.5-1.8-1-2.6C363.5,157.2,363.2,156.9,363.2,156.8z"/>
		<path class="st4" d="M342.8,208.6c-0.1-0.1,0.4-0.4,0.8-1.2c0.4-0.8,0.6-1.6,0.4-2.5c-0.1-0.9-0.5-1.7-1.1-2.3
			c-0.3-0.4-0.8-0.6-1.3-0.7c-0.5-0.1-0.9-0.1-1.4,0.1c0,0,0.1-0.1,0.3-0.3c0.3-0.2,0.7-0.2,1.1-0.1c0.6,0.1,1.1,0.4,1.5,0.8
			c0.5,0.5,0.9,1.1,1.1,1.7c0.2,0.6,0.3,1.2,0.2,1.8c-0.1,0.6-0.3,1.2-0.6,1.7C343.4,208.4,342.8,208.7,342.8,208.6z"/>
		<path class="st4" d="M361.9,201.6c0.1-0.4,0.1-0.8,0.2-1.2c0.1-0.9,0-1.9-0.3-2.8s-1-1.6-1.7-2.2c-0.6-0.4-1-0.6-1-0.7
			c0.4,0,0.8,0.2,1.2,0.4c0.9,0.5,1.6,1.4,2,2.3c0.4,1,0.5,2,0.2,3C362.3,201.3,362,201.7,361.9,201.6z"/>
		<path class="st4" d="M402.7,184.6c0,0,0-0.4,0-1.1c0-1-0.3-2-0.7-2.9l0.2,0.1c-3.9,1.8-10.5,4.6-18.1,7.8l-15.5,6.5l-4.7,1.9
			l-1.3,0.5c-0.1,0.1-0.3,0.1-0.5,0.1c0.1-0.1,0.3-0.2,0.4-0.2l1.3-0.6l4.7-2.1l15.5-6.7c7.5-3.2,14.1-6,18.1-7.6l0.1,0l0,0.1
			c0.5,0.9,0.7,2,0.7,3c0,0.3,0,0.5-0.1,0.8C402.7,184.5,402.7,184.6,402.7,184.6z"/>
		<path class="st5" d="M382.2,158.8l-5.9,0.4l0.1,1.1l5.9-0.4L382.2,158.8z"/>
		<g class="st6">
			<path d="M363.3,156.9c-0.7,0.2-1.3,0.6-1.7,1.2c-0.4,0.6-0.7,1.3-0.8,2c0,0.8,0.1,1.5,0.5,2.2c0.4,0.7,0.9,1.2,1.6,1.6
				c0.2,0.1,0.5,0.2,0.7,0.2c0.3,0,0.5,0,0.8-0.1c0.4-0.2,0.6-0.6,0.7-1c0.4-1.1,0.3-2.3-0.1-3.3
				C364.8,158.5,364.1,157.6,363.3,156.9"/>
		</g>
		<g class="st6">
			<path d="M341.6,201.9c-0.2-0.1-0.5-0.1-0.7-0.1c-0.2,0-0.5,0.1-0.6,0.3c-0.4,0.3-0.6,0.7-0.7,1.2c-0.2,0.8-0.2,1.6,0.1,2.4
				c0.3,0.8,0.7,1.4,1.4,1.9c0.3,0.2,0.6,0.4,0.9,0.5c0.3,0.1,0.7,0.1,1,0c0.5-0.2,0.8-0.5,1-0.9c0.2-0.4,0.3-0.9,0.3-1.4
				c0.1-0.8-0.1-1.6-0.4-2.4c-0.2-0.4-0.4-0.7-0.7-1c-0.3-0.3-0.7-0.5-1.1-0.6"/>
		</g>
		<path class="st5" d="M292.8,173.1l-24.6,5.5c-0.3,0.1-0.5,0.1-0.8,0c-0.3,0-0.5-0.1-0.7-0.3c-0.2-0.1-0.4-0.3-0.6-0.5
			c-0.1-0.2-0.3-0.5-0.3-0.7c-0.1-0.5,0-1,0.3-1.5c0.3-0.4,0.7-0.8,1.2-0.9l24.6-5.5c0.5-0.1,1,0,1.5,0.3c0.4,0.3,0.8,0.7,0.9,1.2
			c0.1,0.5,0,1-0.3,1.5C293.8,172.7,293.3,173,292.8,173.1z"/>
		<path class="st5" d="M188.8,243.7c-1,0.1-2.4,5.8-3,8.4c0,0.2,0,0.4,0,0.6c0.1,0.2,0.1,0.4,0.3,0.5c0.1,0.2,0.3,0.3,0.4,0.4
			s0.4,0.2,0.5,0.2c1.3,0.3,2.7,0.4,4,0.1c0.2,0,0.4-0.1,0.6-0.2c0.2-0.1,0.3-0.2,0.4-0.4s0.2-0.3,0.2-0.5c0-0.2,0-0.4,0-0.6
			C191.6,249.6,189.7,243.6,188.8,243.7z"/>
		<path class="st5" d="M332.3,298.2c-1.3,0.1-3.4,10.1-4.2,14.5c-0.1,0.6,0,1.2,0.3,1.8c0.3,0.5,0.8,0.9,1.4,1.1
			c1.8,0.6,3.7,0.6,5.6,0.1c0.6-0.2,1.1-0.6,1.4-1.1c0.3-0.5,0.4-1.2,0.3-1.8C336.2,308.5,333.7,298.1,332.3,298.2z"/>
		<path class="st5" d="M357.8,298.7c-1.3,0.1-3.4,10.1-4.2,14.5c-0.1,0.6,0,1.2,0.3,1.8c0.3,0.5,0.8,0.9,1.4,1.1
			c1.8,0.6,3.7,0.6,5.6,0.1c0.6-0.2,1.1-0.6,1.4-1.1s0.4-1.2,0.3-1.8C361.6,309,359.1,298.6,357.8,298.7z"/>
		<path class="st5" d="M346.6,302.3c-0.9,0.1-2.3,6.9-2.9,9.9c-0.1,0.4,0,0.8,0.2,1.2c0.2,0.4,0.6,0.6,1,0.7
			c1.2,0.4,2.6,0.4,3.8,0.1c0.4-0.1,0.8-0.4,1-0.8c0.2-0.4,0.3-0.8,0.2-1.2C349.2,309.4,347.5,302.2,346.6,302.3z"/>
		<path class="st4" d="M342.6,309.2c-0.6,0.1-1.5,4.2-1.9,6c0,0.3,0,0.5,0.2,0.7c0.2,0.2,0.4,0.4,0.6,0.4c0.8,0.2,1.7,0.3,2.5,0.1
			c0.3-0.1,0.5-0.2,0.6-0.4c0.1-0.2,0.2-0.5,0.1-0.8C344.4,313.4,343.2,309.1,342.6,309.2z"/>
		<path class="st5" d="M250.6,304.6c-1,0.1-2.4,7.2-3,10.3c-0.1,0.4,0,0.9,0.2,1.3c0.2,0.4,0.6,0.6,1,0.8c1.3,0.4,2.7,0.5,4,0.1
			c0.4-0.1,0.8-0.4,1-0.8c0.2-0.4,0.3-0.8,0.2-1.3C253.4,311.8,251.6,304.5,250.6,304.6z"/>
		<path class="st4" d="M245.6,307.8c-0.6,0.1-1.5,4.2-1.9,6c0,0.3,0,0.5,0.2,0.7c0.1,0.2,0.4,0.4,0.6,0.4c0.8,0.2,1.7,0.3,2.5,0.1
			c0.3-0.1,0.5-0.2,0.6-0.4c0.1-0.2,0.2-0.5,0.1-0.8C247.4,312,246.2,307.7,245.6,307.8z"/>
		<path class="st5" d="M165.2,298.8c-1.7,0.1-4.2,10.1-5.2,14.5c-0.3,1.3,0.7,2.5,2.2,2.8c2.3,0.6,4.7,0.6,7,0.1
			c1.6-0.4,2.5-1.6,2.1-2.9C170.1,309,166.9,298.6,165.2,298.8z"/>
		<path class="st5" d="M158.2,302.2c-1.1,0.1-2.7,8.1-3.3,11.6c-0.1,0.5,0,1,0.3,1.4c0.3,0.4,0.7,0.7,1.1,0.9c1.5,0.5,3,0.5,4.5,0.1
			c0.5-0.1,0.9-0.5,1.2-0.9c0.3-0.4,0.3-1,0.2-1.4C161.4,310.4,159.3,302,158.2,302.2z"/>
		<path class="st4" d="M151.9,308.2c-0.6,0.1-1.5,4.2-1.9,6c0,0.3,0,0.5,0.2,0.7c0.2,0.2,0.4,0.4,0.6,0.4c0.8,0.2,1.7,0.3,2.5,0.1
			c0.3-0.1,0.5-0.2,0.6-0.4c0.1-0.2,0.2-0.5,0.1-0.8C153.7,312.4,152.5,308.2,151.9,308.2z"/>
		<path class="st5" d="M161.6,310.4c-1,0.1-2.4,5.8-3,8.4c0,0.2,0,0.4,0,0.6c0.1,0.2,0.1,0.4,0.3,0.5c0.1,0.2,0.3,0.3,0.4,0.4
			c0.2,0.1,0.4,0.2,0.5,0.2c1.3,0.3,2.7,0.4,4.1,0.1c0.2,0,0.4-0.1,0.6-0.2c0.2-0.1,0.3-0.2,0.4-0.4c0.1-0.2,0.2-0.3,0.2-0.5
			c0-0.2,0-0.4,0-0.6C164.4,316.3,162.5,310.3,161.6,310.4z"/>
		<g class="st6">
			<path d="M161.6,310.4c-1,0.1-2.4,5.8-3,8.4c0,0.2,0,0.4,0,0.6c0.1,0.2,0.1,0.4,0.3,0.5c0.1,0.2,0.3,0.3,0.4,0.4
				c0.2,0.1,0.4,0.2,0.5,0.2c1.3,0.3,2.7,0.4,4.1,0.1c0.2,0,0.4-0.1,0.6-0.2c0.2-0.1,0.3-0.2,0.4-0.4c0.1-0.2,0.2-0.3,0.2-0.5
				c0-0.2,0-0.4,0-0.6C164.4,316.3,162.5,310.3,161.6,310.4z"/>
		</g>
		<path class="st5" d="M174.1,307.6c-0.8,0.1-2,4.7-2.4,6.7c0,0.2,0,0.3,0,0.5c0,0.1,0.1,0.3,0.2,0.4c0.1,0.1,0.2,0.2,0.3,0.3
			c0.1,0.1,0.3,0.1,0.4,0.1c1.1,0.3,2.2,0.3,3.2,0.1c0.7-0.2,1.2-0.8,1-1.4C176.4,312.4,174.9,307.6,174.1,307.6z"/>
		<g class="st6">
			<path d="M174.1,307.6c-0.8,0.1-2,4.7-2.4,6.7c0,0.2,0,0.3,0,0.5c0,0.1,0.1,0.3,0.2,0.4c0.1,0.1,0.2,0.2,0.3,0.3
				c0.1,0.1,0.3,0.1,0.4,0.1c1.1,0.3,2.2,0.3,3.2,0.1c0.7-0.2,1.2-0.8,1-1.4C176.4,312.4,174.9,307.6,174.1,307.6z"/>
		</g>
		<path class="st5" d="M187.7,313c-0.8,0.1-1.9,4.7-2.4,6.7c0,0.2,0,0.3,0,0.5c0,0.1,0.1,0.3,0.2,0.4c0.1,0.1,0.2,0.2,0.3,0.3
			c0.1,0.1,0.3,0.1,0.4,0.1c1.1,0.3,2.2,0.3,3.2,0.1c0.2,0,0.3-0.1,0.4-0.1c0.1-0.1,0.3-0.2,0.3-0.3c0.1-0.1,0.2-0.3,0.2-0.4
			c0-0.2,0-0.3,0-0.5C190,317.8,188.5,313,187.7,313z"/>
		<g class="st6">
			<path d="M187.7,313c-0.8,0.1-1.9,4.7-2.4,6.7c0,0.2,0,0.3,0,0.5c0,0.1,0.1,0.3,0.2,0.4c0.1,0.1,0.2,0.2,0.3,0.3
				c0.1,0.1,0.3,0.1,0.4,0.1c1.1,0.3,2.2,0.3,3.2,0.1c0.2,0,0.3-0.1,0.4-0.1c0.1-0.1,0.3-0.2,0.3-0.3c0.1-0.1,0.2-0.3,0.2-0.4
				c0-0.2,0-0.3,0-0.5C190,317.8,188.5,313,187.7,313z"/>
		</g>
		<path class="st5" d="M225.6,305.1c-1.3,0.1-3.4,10.1-4.2,14.5c-0.1,0.6,0,1.2,0.3,1.8c0.3,0.5,0.8,0.9,1.4,1.1
			c1.8,0.6,3.7,0.6,5.6,0.1c0.6-0.2,1.1-0.6,1.4-1.1c0.3-0.5,0.4-1.2,0.3-1.8C229.5,315.3,226.9,305,225.6,305.1z"/>
		<path class="st5" d="M202.8,299.6c-1.3,0.1-3.4,10.1-4.2,14.5c-0.1,0.6,0,1.2,0.3,1.8c0.3,0.5,0.8,0.9,1.4,1.1
			c1.8,0.6,3.7,0.6,5.6,0.1c0.6-0.2,1.1-0.6,1.4-1.1c0.3-0.5,0.4-1.2,0.3-1.8C206.7,309.8,204.1,299.4,202.8,299.6z"/>
		<path class="st5" d="M208.8,305.6c-0.9,0.1-2.2,6.7-2.8,9.6c-0.1,0.4,0,0.8,0.2,1.2c0.2,0.3,0.6,0.6,0.9,0.7
			c1.2,0.4,2.5,0.4,3.7,0.1c0.4-0.1,0.7-0.4,1-0.7c0.2-0.4,0.3-0.8,0.2-1.2C211.4,312.4,209.7,305.5,208.8,305.6z"/>
		<path class="st4" d="M220.6,310.7c-0.6,0.1-1.5,4.2-1.9,6c0,0.3,0,0.5,0.2,0.7c0.1,0.2,0.4,0.4,0.6,0.4c0.8,0.2,1.7,0.3,2.5,0.1
			c0.3-0.1,0.5-0.2,0.6-0.4c0.1-0.2,0.2-0.5,0.1-0.8C222.4,314.9,221.2,310.6,220.6,310.7z"/>
		<path class="st4" d="M197.6,307.1c-1,0.1-2.5,6.7-3.1,9.6c-0.1,0.4,0,0.8,0.3,1.2c0.2,0.3,0.6,0.6,1,0.7c1.3,0.4,2.7,0.4,4.1,0.1
			c0.4-0.1,0.8-0.3,1-0.7s0.3-0.8,0.2-1.2C200.4,313.9,198.6,307,197.6,307.1z"/>
		<path class="st5" d="M213.3,309c-0.8,0.1-1.9,4.7-2.4,6.7c0,0.2,0,0.3,0,0.5s0.1,0.3,0.2,0.4c0.1,0.1,0.2,0.2,0.3,0.3
			c0.1,0.1,0.3,0.1,0.4,0.1c1.1,0.3,2.2,0.3,3.2,0.1c0.2,0,0.3-0.1,0.4-0.1c0.1-0.1,0.3-0.2,0.3-0.3c0.1-0.1,0.2-0.3,0.2-0.4
			c0-0.2,0-0.3,0-0.5C215.6,313.7,214.1,308.9,213.3,309z"/>
		<g class="st6">
			<path d="M213.3,309c-0.8,0.1-1.9,4.7-2.4,6.7c0,0.2,0,0.3,0,0.5s0.1,0.3,0.2,0.4c0.1,0.1,0.2,0.2,0.3,0.3
				c0.1,0.1,0.3,0.1,0.4,0.1c1.1,0.3,2.2,0.3,3.2,0.1c0.2,0,0.3-0.1,0.4-0.1c0.1-0.1,0.3-0.2,0.3-0.3c0.1-0.1,0.2-0.3,0.2-0.4
				c0-0.2,0-0.3,0-0.5C215.6,313.7,214.1,308.9,213.3,309z"/>
		</g>
		<path class="st5" d="M264.3,292.2c-1.2,0.1-2.9,8.8-3.6,12.6c-0.1,0.5,0,1.1,0.3,1.5c0.3,0.5,0.7,0.8,1.2,0.9
			c1.6,0.5,3.3,0.6,4.9,0.1c0.5-0.2,1-0.5,1.3-1c0.3-0.5,0.4-1,0.2-1.6C267.7,301.1,265.4,292.1,264.3,292.2z"/>
		<path class="st5" d="M272.2,297c-1,0.1-2.4,7.2-3,10.3c-0.1,0.4,0,0.9,0.2,1.3c0.2,0.4,0.6,0.6,1,0.8c1.3,0.4,2.7,0.5,4,0.1
			c0.4-0.1,0.8-0.4,1-0.8c0.2-0.4,0.3-0.8,0.2-1.3C275,304.3,273.2,296.9,272.2,297z"/>
		<path class="st4" d="M280.2,308.1c-0.6,0.1-1.5,4.2-1.9,6c0,0.3,0,0.5,0.2,0.7c0.1,0.2,0.4,0.4,0.6,0.4c0.8,0.2,1.7,0.3,2.5,0.1
			c0.1,0,0.3-0.1,0.4-0.2c0.1-0.1,0.2-0.2,0.3-0.3c0.1-0.1,0.1-0.2,0.1-0.4c0-0.1,0-0.3,0-0.4C282,312.4,280.8,308.1,280.2,308.1z"
			/>
		<path class="st5" d="M267.3,307.4c-1.2,0.1-3.1,7.4-3.9,10.7c0,0.2,0,0.5,0,0.7c0.1,0.2,0.2,0.5,0.3,0.7c0.2,0.2,0.3,0.4,0.6,0.5
			c0.2,0.1,0.5,0.2,0.7,0.2c1.7,0.4,3.5,0.5,5.2,0.1c0.2,0,0.5-0.1,0.7-0.2c0.2-0.1,0.4-0.3,0.6-0.5c0.1-0.2,0.3-0.4,0.3-0.7
			c0.1-0.2,0.1-0.5,0-0.7C270.9,315,268.5,307.3,267.3,307.4z"/>
		<g class="st6">
			<path d="M267.3,307.4c-1.2,0.1-3.1,7.4-3.9,10.7c0,0.2,0,0.5,0,0.7c0.1,0.2,0.2,0.5,0.3,0.7c0.2,0.2,0.3,0.4,0.6,0.5
				c0.2,0.1,0.5,0.2,0.7,0.2c1.7,0.4,3.5,0.5,5.2,0.1c0.2,0,0.5-0.1,0.7-0.2c0.2-0.1,0.4-0.3,0.6-0.5c0.1-0.2,0.3-0.4,0.3-0.7
				c0.1-0.2,0.1-0.5,0-0.7C270.9,315,268.5,307.3,267.3,307.4z"/>
		</g>
		<path class="st7" d="M286.9,209.2H281v104.7h5.9V209.2z"/>
		<path class="st7" d="M286.9,209.2v104.6l28.9,0.6v-81.7L286.9,209.2z"/>
		<g class="st6">
			<path d="M315.8,237.6c0,0-21.7,7.5-20.8,34.5c0.9,26.9,20.9,30.2,20.9,30.2L315.8,237.6z"/>
		</g>
		<path class="st4" d="M312.1,301.3c-0.1,0-0.2-13.7-0.2-30.5c0-16.8,0.1-30.5,0.2-30.5c0.1,0,0.2,13.7,0.2,30.5
			C312.3,287.7,312.2,301.3,312.1,301.3z"/>
		<path class="st4" d="M307.3,297c-0.1,0-0.2-12.2-0.2-27.1c0-15,0.1-27.1,0.2-27.1c0.1,0,0.2,12.1,0.2,27.1
			C307.6,284.8,307.5,297,307.3,297z"/>
		<path class="st4" d="M302.6,293.3c-0.1,0-0.2-10-0.2-22.3c0-12.3,0.1-22.3,0.2-22.3s0.2,10,0.2,22.3
			C302.8,283.3,302.7,293.3,302.6,293.3z"/>
		<path class="st4" d="M297.9,285.3c-0.1,0-0.2-6.7-0.2-15c0-8.3,0.1-15,0.2-15c0.1,0,0.2,6.7,0.2,15
			C298.1,278.6,298,285.3,297.9,285.3z"/>
		<g class="st6">
			<path d="M286.9,209.2H281v104.7h5.9V209.2z"/>
		</g>
		<path class="st5" d="M303.2,305.7c-0.2-1.3-0.6-2.5-1.1-3.7c-0.3-0.6-0.8-1.2-1.4-1.6c-0.6-0.4-1.3-0.6-2-0.6h-0.2h-0.2
			c-0.7,0-1.4,0.3-2,0.6c-0.6,0.4-1.1,0.9-1.4,1.6c-0.5,1.2-0.8,2.4-1.1,3.7c-0.5,1.5-0.7,3.1-0.8,4.7c0,0.8,0.1,1.5,0.4,2.2
			s0.8,1.3,1.3,1.8c1.1,0.8,2.4,1.1,3.8,1c1.5,0,2.8-0.2,3.8-1c0.6-0.5,1-1.1,1.3-1.8c0.3-0.7,0.5-1.4,0.5-2.2
			C304,308.8,303.7,307.2,303.2,305.7z"/>
		<path class="st5" d="M313,299.2c-1.3,0.1-3.3,10.1-4.2,14.5c-0.1,0.6,0,1.2,0.3,1.8c0.3,0.5,0.8,0.9,1.4,1.1
			c1.8,0.6,3.7,0.6,5.6,0.1c0.6-0.2,1.1-0.6,1.4-1.1c0.3-0.5,0.4-1.2,0.3-1.8C316.9,309.4,314.3,299,313,299.2z"/>
		<path class="st5" d="M319.7,298.9c-0.7,0.1-1.8,5.5-2.3,7.8c-0.1,0.3,0,0.7,0.2,0.9c0.2,0.3,0.4,0.5,0.8,0.6c1,0.3,2,0.4,3,0.1
			c0.3-0.1,0.6-0.3,0.8-0.6s0.2-0.6,0.2-1C321.8,304.4,320.4,298.8,319.7,298.9z"/>
		<path class="st4" d="M323.4,301.4c-0.6,0.1-1.5,4.2-1.9,6c0,0.3,0,0.5,0.2,0.7c0.1,0.2,0.4,0.4,0.6,0.4c0.8,0.2,1.7,0.3,2.6,0.1
			c0.1,0,0.3-0.1,0.4-0.2c0.1-0.1,0.2-0.2,0.3-0.3c0.1-0.1,0.1-0.2,0.1-0.4c0-0.1,0-0.3,0-0.4C325.2,305.6,324,301.4,323.4,301.4z"
			/>
		<path class="st5" d="M317.2,309.7c-0.7,0.1-1.7,4.1-2.1,5.9c0,0.3,0,0.5,0.2,0.8c0.2,0.2,0.4,0.4,0.7,0.4c0.9,0.2,1.9,0.3,2.8,0.1
			c0.1,0,0.3-0.1,0.4-0.1c0.1-0.1,0.2-0.2,0.3-0.3c0.1-0.1,0.1-0.2,0.2-0.4c0-0.1,0-0.3,0-0.4C319.2,313.9,317.9,309.6,317.2,309.7z
			"/>
		<g class="st6">
			<path d="M317.2,309.7c-0.7,0.1-1.7,4.1-2.1,5.9c0,0.3,0,0.5,0.2,0.8c0.2,0.2,0.4,0.4,0.7,0.4c0.9,0.2,1.9,0.3,2.8,0.1
				c0.1,0,0.3-0.1,0.4-0.1c0.1-0.1,0.2-0.2,0.3-0.3c0.1-0.1,0.1-0.2,0.2-0.4c0-0.1,0-0.3,0-0.4C319.2,313.9,317.9,309.6,317.2,309.7
				z"/>
		</g>
		<path class="st5" d="M397.9,298.2c-1.3,0.1-3.4,10.1-4.2,14.5c-0.1,0.6,0,1.2,0.3,1.8c0.3,0.5,0.8,0.9,1.4,1.1
			c1.8,0.6,3.7,0.6,5.6,0.1c0.6-0.2,1.1-0.6,1.4-1.1c0.3-0.5,0.4-1.2,0.3-1.8C401.8,308.5,399.2,298.1,397.9,298.2z"/>
		<path class="st4" d="M407.7,305.2c-0.6,0.1-1.5,4.2-1.9,6c0,0.3,0,0.5,0.2,0.7c0.1,0.2,0.4,0.4,0.6,0.4c0.8,0.2,1.7,0.3,2.5,0.1
			c0.3-0.1,0.5-0.2,0.6-0.4c0.1-0.2,0.2-0.5,0.1-0.8C409.4,309.5,408.3,305.2,407.7,305.2z"/>
		<path class="st5" d="M392.8,308.7c-0.7,0.1-1.7,4.1-2.1,5.9c0,0.3,0,0.5,0.2,0.8c0.2,0.2,0.4,0.4,0.7,0.4c0.9,0.2,1.9,0.3,2.8,0.1
			c0.1,0,0.3-0.1,0.4-0.1s0.2-0.2,0.3-0.3c0.1-0.1,0.1-0.2,0.2-0.4s0-0.3,0-0.4C394.8,312.9,393.5,308.7,392.8,308.7z"/>
		<g class="st6">
			<path d="M392.8,308.7c-0.7,0.1-1.7,4.1-2.1,5.9c0,0.3,0,0.5,0.2,0.8c0.2,0.2,0.4,0.4,0.7,0.4c0.9,0.2,1.9,0.3,2.8,0.1
				c0.1,0,0.3-0.1,0.4-0.1s0.2-0.2,0.3-0.3c0.1-0.1,0.1-0.2,0.2-0.4s0-0.3,0-0.4C394.8,312.9,393.5,308.7,392.8,308.7z"/>
		</g>
		<path class="st5" d="M112.3,270.9c-1,0.1-2.4,5.8-3,8.4c0,0.2,0,0.4,0,0.6s0.1,0.4,0.3,0.5c0.1,0.2,0.3,0.3,0.4,0.4
			c0.2,0.1,0.4,0.1,0.6,0.2c1.3,0.3,2.7,0.4,4,0.1c0.2,0,0.4-0.1,0.6-0.2c0.2-0.1,0.3-0.2,0.4-0.4c0.1-0.2,0.2-0.3,0.2-0.5
			c0-0.2,0-0.4,0-0.6C115.1,276.8,113.2,270.8,112.3,270.9z"/>
		<path class="st5" d="M121.7,267.6c-0.6,0.1-1.5,3.7-1.9,5.3c0,0.1,0,0.2,0,0.4c0,0.1,0.1,0.2,0.2,0.3c0.1,0.1,0.2,0.2,0.3,0.2
			c0.1,0.1,0.2,0.1,0.3,0.1c0.8,0.2,1.7,0.2,2.6,0c0.6-0.1,0.9-0.6,0.8-1.1C123.5,271.4,122.3,267.6,121.7,267.6z"/>
		<path class="st4" d="M130.9,269.2c-0.6,0-1.5,3.7-1.9,5.3c0,0.1,0,0.2,0,0.4c0,0.1,0.1,0.2,0.2,0.3c0.1,0.1,0.2,0.2,0.3,0.2
			c0.1,0.1,0.2,0.1,0.4,0.1c0.8,0.2,1.7,0.2,2.6,0.1c0.1,0,0.2,0,0.4-0.1c0.1-0.1,0.2-0.1,0.3-0.2c0.1-0.1,0.1-0.2,0.2-0.3
			c0-0.1,0-0.2,0-0.4C132.7,273,131.5,269.2,130.9,269.2z"/>
		<path class="st4" d="M125.9,266.9c-0.5,0-1.2,2.8-1.5,4c0,0.1,0,0.2,0,0.3c0,0.1,0.1,0.2,0.1,0.2c0.1,0.1,0.1,0.1,0.2,0.2
			c0.1,0,0.2,0.1,0.3,0.1c0.6,0.2,1.3,0.2,2,0c0.4-0.1,0.7-0.5,0.6-0.8C127.3,269.8,126.4,266.9,125.9,266.9z"/>
		<path class="st4" d="M98.4,284.7c-0.5,0-1.2,2.8-1.5,4c0,0.1,0,0.2,0,0.3c0,0.1,0.1,0.2,0.1,0.2c0.1,0.1,0.1,0.1,0.2,0.2
			c0.1,0,0.2,0.1,0.3,0.1c0.6,0.2,1.3,0.2,2,0c0.1,0,0.2,0,0.3-0.1c0.1,0,0.2-0.1,0.2-0.2c0.1-0.1,0.1-0.2,0.1-0.3
			c0-0.1,0-0.2,0-0.3C99.8,287.6,98.9,284.7,98.4,284.7z"/>
		<path class="st4" d="M105.9,281.3c-0.5,0-1.2,2.8-1.5,4c0,0.1,0,0.2,0,0.3s0.1,0.2,0.1,0.2c0.1,0.1,0.1,0.1,0.2,0.2
			c0.1,0,0.2,0.1,0.3,0.1c0.6,0.1,1.3,0.1,2,0c0.1,0,0.2,0,0.3-0.1c0.1,0,0.2-0.1,0.2-0.2c0.1-0.1,0.1-0.2,0.1-0.3
			c0-0.1,0-0.2,0-0.3C107.3,284.1,106.4,281.2,105.9,281.3z"/>
		<path class="st5" d="M101.6,281.9c-1,0.1-2.4,5.8-3,8.4c0,0.2,0,0.4,0,0.6c0,0.2,0.1,0.4,0.3,0.5c0.1,0.2,0.3,0.3,0.4,0.4
			c0.2,0.1,0.4,0.2,0.6,0.2c1.3,0.3,2.7,0.4,4.1,0.1c0.2,0,0.4-0.1,0.6-0.2c0.2-0.1,0.3-0.2,0.4-0.4c0.1-0.2,0.2-0.3,0.2-0.5
			c0-0.2,0-0.4,0-0.6C104.4,287.9,102.5,281.9,101.6,281.9z"/>
		<g class="st6">
			<path d="M101.6,281.9c-1,0.1-2.4,5.8-3,8.4c0,0.2,0,0.4,0,0.6c0,0.2,0.1,0.4,0.3,0.5c0.1,0.2,0.3,0.3,0.4,0.4
				c0.2,0.1,0.4,0.2,0.6,0.2c1.3,0.3,2.7,0.4,4.1,0.1c0.2,0,0.4-0.1,0.6-0.2c0.2-0.1,0.3-0.2,0.4-0.4c0.1-0.2,0.2-0.3,0.2-0.5
				c0-0.2,0-0.4,0-0.6C104.4,287.9,102.5,281.9,101.6,281.9z"/>
		</g>
		<path class="st5" d="M116,272.3c-0.7,0.1-1.8,4.2-2.2,6.1c0,0.3,0,0.6,0.2,0.8c0.2,0.2,0.4,0.4,0.7,0.4c1,0.2,2,0.3,2.9,0.1
			c0.1,0,0.3-0.1,0.4-0.1c0.1-0.1,0.2-0.2,0.3-0.3c0.1-0.1,0.1-0.2,0.2-0.4c0-0.1,0-0.3,0-0.4C118.1,276.6,116.7,272.2,116,272.3z"
			/>
		<g class="st6">
			<path d="M116,272.3c-0.7,0.1-1.8,4.2-2.2,6.1c0,0.3,0,0.6,0.2,0.8c0.2,0.2,0.4,0.4,0.7,0.4c1,0.2,2,0.3,2.9,0.1
				c0.1,0,0.3-0.1,0.4-0.1c0.1-0.1,0.2-0.2,0.3-0.3c0.1-0.1,0.1-0.2,0.2-0.4c0-0.1,0-0.3,0-0.4C118.1,276.6,116.7,272.2,116,272.3z"
				/>
		</g>
		<path class="st5" d="M133.9,262.5c-0.7,0.1-1.8,4.2-2.2,6.1c0,0.3,0,0.6,0.2,0.8c0.2,0.2,0.4,0.4,0.7,0.4c1,0.2,2,0.3,2.9,0.1
			c0.1,0,0.3-0.1,0.4-0.1c0.1-0.1,0.2-0.2,0.3-0.3c0.1-0.1,0.1-0.2,0.2-0.4c0-0.1,0-0.3,0-0.4C136,266.8,134.6,262.4,133.9,262.5z"
			/>
		<g class="st6">
			<path d="M133.9,262.5c-0.7,0.1-1.8,4.2-2.2,6.1c0,0.3,0,0.6,0.2,0.8c0.2,0.2,0.4,0.4,0.7,0.4c1,0.2,2,0.3,2.9,0.1
				c0.1,0,0.3-0.1,0.4-0.1c0.1-0.1,0.2-0.2,0.3-0.3c0.1-0.1,0.1-0.2,0.2-0.4c0-0.1,0-0.3,0-0.4C136,266.8,134.6,262.4,133.9,262.5z"
				/>
		</g>
		<path class="st1" d="M174.7,115c-0.2-0.6-0.5-1-1.1-1.3c-0.4-0.1-0.8-0.1-1.2,0.1c-0.4,0.2-0.6,0.5-0.8,0.9
			c-0.3,0.8-0.3,1.6-0.2,2.4c-0.2-0.4-0.5-0.7-0.8-1c-0.4-0.3-0.8-0.4-1.2-0.5c-0.4-0.1-0.9,0-1.3,0.1c-0.4,0.1-0.8,0.4-1.1,0.7
			c-0.2,0.3-0.5,0.7-0.8,0.9c-0.6,0.4-1.3,0.6-2,0.5c-8,0.2-16.1,0.8-24.1,1.8c1.3,0.5,2.7,0.8,4.1,0.7c9.9,0.2,21-0.1,30.9,0.1h0.9
			C175.9,118.5,175.4,116.7,174.7,115z"/>
		<path class="st4" d="M186.8,114.4h11.1c1.3,0,2.5,0.3,3.7,0.9l3.5,1.8c0,0,3.5,0.9,4.1,2.1s-0.1,2-1.4,2.2c-1.3,0.1-23.8,0-23.8,0
			L186.8,114.4z"/>
		<path class="st4" d="M181.3,117h11.9c0.5,0,0.9,0.2,1.3,0.5c0.3,0.3,0.5,0.8,0.5,1.2c0,0.2,0,0.5-0.1,0.7
			c-0.1,0.2-0.2,0.4-0.4,0.6c-0.2,0.2-0.4,0.3-0.6,0.4c-0.2,0.1-0.5,0.1-0.7,0.1h-8L181.3,117z"/>
		<path class="st5" d="M205.1,117h-10.3l-2.8-2.6h6.8c0.9,0,1.8,0.2,2.5,0.6L205.1,117z"/>
		<path class="st4" d="M194.8,117l-2.8-2.7h6.9c0.9,0,1.8,0.2,2.6,0.7l3.7,2h-0.1L194.8,117z M192.1,114.4l2.7,2.6H205l-3.6-1.9
			c-0.8-0.4-1.7-0.6-2.5-0.6L192.1,114.4z"/>
		<path class="st5" d="M185.7,120.6c-0.5-0.2-0.9-0.5-1.3-0.9c-0.8-0.6-1.9-1.5-3.2-2.5l-0.5-0.4h0.6h3.3c2.5,0,4.7,0,6.3,0
			c0.9,0,1.8,0,2.7,0.2c-0.9,0.1-1.8,0.2-2.7,0.2c-1.6,0-3.9,0.1-6.3,0.1h-3.3l0.1-0.4c1.3,1.1,2.3,2,3.1,2.6
			C185,119.8,185.4,120.2,185.7,120.6z"/>
		<path class="st4" d="M162,120.4c0-0.1,4.3-0.2,9.6-0.2s9.6,0.1,9.6,0.2c0,0.1-4.3,0.2-9.6,0.2C166.3,120.6,162,120.5,162,120.4z"
			/>
		<path class="st7" d="M374.2,142.6h-8.8c-1,0-2,0.2-2.9,0.7l-2.8,1.4c0,0-2.8,0.7-3.2,1.7c-0.4,1,0.1,1.6,1.1,1.8
			c1.1,0.1,19,0,19,0L374.2,142.6z"/>
		<path class="st7" d="M378.6,144.7H369c-0.4,0-0.8,0.2-1,0.4c-0.3,0.3-0.4,0.6-0.4,1c0,0.4,0.2,0.7,0.4,1c0.3,0.3,0.6,0.4,1,0.4
			h6.3L378.6,144.7z"/>
		<path class="st2" d="M359.6,144.7h8.2l2.2-2.1h-5.5c-0.7,0-1.4,0.2-2,0.5L359.6,144.7z"/>
		<path class="st4" d="M375.1,147.6c1-1.1,2.1-2.1,3.3-3.1l0.1,0.4H376c-2,0-3.7,0-5-0.1c-0.7,0-1.4,0-2.1-0.2
			c0.7-0.1,1.4-0.2,2.1-0.2c1.3,0,3.1-0.1,5,0h2.6h0.6l-0.5,0.4C377.6,145.8,376.4,146.7,375.1,147.6z"/>
		<path class="st4" d="M394,147.3c-2.6,0.2-5.1,0.3-7.7,0.2c-2.6,0.1-5.1,0-7.7-0.2c2.6-0.2,5.1-0.3,7.7-0.2
			C388.9,147,391.4,147.1,394,147.3z"/>
		<path class="st4" d="M387.6,145.8c-3,0.3-6,0.3-9.1,0C381.5,145.5,384.5,145.5,387.6,145.8z"/>
		<path class="st4" d="M116.7,206.6h8.8c1,0,2,0.2,2.9,0.7l2.8,1.4c0,0,2.8,0.7,3.2,1.7c0.4,1-0.1,1.6-1.1,1.8c-1.1,0.1-19,0-19,0
			L116.7,206.6z"/>
		<path class="st4" d="M112.4,208.7h9.5c0.4,0,0.8,0.2,1,0.4c0.3,0.3,0.4,0.6,0.4,1c0,0.2,0,0.4-0.1,0.6c-0.1,0.2-0.2,0.3-0.3,0.5
			c-0.1,0.1-0.3,0.2-0.5,0.3c-0.2,0.1-0.4,0.1-0.6,0.1h-6.3L112.4,208.7z"/>
		<path class="st5" d="M131.4,208.7h-8.2l-2.2-2.1h5.5c0.7,0,1.4,0.2,2,0.5L131.4,208.7z"/>
		<path class="st4" d="M123.2,208.7l-2.3-2.2h5.5c0.7,0,1.4,0.2,2,0.5l3,1.6h-0.1L123.2,208.7z M121,206.6l2.2,2.1h8.1l-2.9-1.5
			c-0.6-0.3-1.3-0.5-2-0.5L121,206.6z"/>
		<path class="st5" d="M115.9,211.6c-1.3-0.8-2.5-1.7-3.6-2.7l-0.5-0.4h0.6h2.6c2,0,3.7,0,5,0.1c0.7,0,1.4,0,2.1,0.2
			c-0.7,0.1-1.4,0.2-2.1,0.2c-1.3,0.1-3.1,0.1-5,0.1h-2.6l0.1-0.4C113.7,209.5,114.8,210.5,115.9,211.6z"/>
		<path class="st4" d="M110.7,211.1c-0.9,0.2-1.9,0.3-2.8,0.2c-1,0.1-1.9,0-2.8-0.2c0.9-0.2,1.9-0.3,2.8-0.2
			C108.9,210.8,109.8,210.8,110.7,211.1z"/>
		<path class="st4" d="M112.6,210.1c-0.8,0.2-1.7,0.3-2.5,0.2c-0.8,0.1-1.7,0-2.5-0.2c0.8-0.2,1.7-0.3,2.5-0.2
			C110.9,209.8,111.8,209.9,112.6,210.1z"/>
	</g>
</g>
</svg>
