<svg width="559" height="559" viewBox="0 0 559 559" fill="none" xmlns="http://www.w3.org/2000/svg">
<circle cx="279.5" cy="279.5" r="279.5" fill="#0098EA"/>
<path d="M339.81 279.244C339.81 265.446 342.795 253.174 348.766 242.428C354.736 231.549 363.028 223.124 373.641 217.154C384.388 211.051 396.527 208 410.059 208C426.643 208 440.839 212.378 452.646 221.134C463.464 229.156 470.996 239.85 475.244 253.217C475.84 255.092 474.403 256.955 472.436 256.955H440.807C439.651 256.955 438.608 256.285 438.056 255.269C435.332 250.255 431.639 246.372 426.975 243.622C421.933 240.571 416.162 239.045 409.661 239.045C399.18 239.045 390.689 242.693 384.188 249.99C377.688 257.287 374.437 267.038 374.437 279.244C374.437 291.45 377.688 301.201 384.188 308.498C390.689 315.795 399.18 319.443 409.661 319.443C416.162 319.443 421.933 317.917 426.975 314.866C431.639 312.115 435.332 308.233 438.056 303.219C438.608 302.203 439.651 301.533 440.807 301.533H472.436C474.403 301.533 475.84 303.396 475.244 305.271C470.996 318.637 463.464 329.332 452.646 337.354C440.839 345.977 426.643 350.289 410.059 350.289C396.527 350.289 384.388 347.304 373.641 341.334C363.028 335.231 354.736 326.806 348.766 316.06C342.795 305.314 339.81 293.042 339.81 279.244Z" fill="white"/>
<path d="M302.242 276.393C301.294 276.791 301.356 278.368 302.331 278.694C308.668 280.812 313.885 284.618 317.982 290.113C322.844 296.497 325.275 303.832 325.275 312.118C325.275 324.072 321.201 333.58 313.054 340.644C305.038 347.571 293.802 351.035 279.347 351.035H215.889C215.337 351.035 214.889 350.587 214.889 350.035V209C214.889 208.448 215.337 208 215.889 208H277.178C291.239 208 302.212 211.328 310.097 217.984C318.113 224.64 322.121 233.673 322.121 245.083C322.121 253.505 319.953 260.501 315.616 266.07C312.144 270.669 307.686 274.11 302.242 276.393ZM248.596 264.866C248.596 265.418 249.044 265.866 249.596 265.866H270.674C276.193 265.866 280.398 264.644 283.289 262.198C286.312 259.618 287.823 255.882 287.823 250.992C287.823 246.102 286.312 242.366 283.289 239.786C280.398 237.205 276.193 235.914 270.674 235.914H249.596C249.044 235.914 248.596 236.362 248.596 236.914V264.866ZM273.433 322.917C279.084 322.917 283.42 321.627 286.443 319.046C289.597 316.329 291.174 312.458 291.174 307.432C291.174 302.406 289.531 298.467 286.246 295.614C283.092 292.762 278.69 291.335 273.039 291.335H249.596C249.044 291.335 248.596 291.783 248.596 292.335V321.917C248.596 322.469 249.044 322.917 249.596 322.917H273.433Z" fill="white"/>
<path d="M142.514 351.085C132.298 351.085 123.144 349.426 115.051 346.11C106.958 342.793 100.457 337.884 95.5484 331.383C91.3175 325.625 88.8565 318.825 88.1653 310.984C88.0168 309.3 89.3835 307.901 91.0744 307.901H121.497C123.035 307.901 124.301 309.071 124.614 310.577C125.421 314.468 127.076 317.556 129.578 319.841C132.63 322.494 136.61 323.821 141.519 323.821C146.56 323.821 150.54 322.693 153.459 320.438C156.378 318.05 157.837 314.8 157.837 310.687C157.837 307.237 156.643 304.385 154.255 302.13C152 299.874 149.147 298.017 145.698 296.557C142.381 295.098 137.605 293.44 131.369 291.582C122.348 288.796 114.985 286.01 109.28 283.224C103.575 280.438 98.6662 276.325 94.5534 270.886C90.4406 265.446 88.3842 258.348 88.3842 249.592C88.3842 236.59 93.094 226.441 102.514 219.144C111.933 211.715 124.205 208 139.33 208C154.719 208 167.124 211.715 176.544 219.144C185.197 225.848 190.156 235.014 191.419 246.644C191.605 248.351 190.229 249.791 188.513 249.791H157.681C156.092 249.791 154.813 248.543 154.481 246.989C153.799 243.798 152.265 241.216 149.877 239.244C146.825 236.59 142.912 235.264 138.136 235.264C134.023 235.264 130.706 236.391 128.185 238.647C125.665 240.77 124.404 243.887 124.404 248C124.404 252.511 126.527 256.027 130.772 258.547C135.018 261.068 141.651 263.788 150.673 266.707C159.694 269.758 166.991 272.677 172.563 275.463C178.268 278.249 183.177 282.295 187.29 287.602C191.403 292.909 193.459 299.741 193.459 308.1C193.459 316.06 191.403 323.29 187.29 329.791C183.31 336.292 177.472 341.466 169.777 345.314C162.083 349.161 152.995 351.085 142.514 351.085Z" fill="white"/>
</svg>
