<svg width="296" height="296" viewBox="0 0 296 296" fill="none" xmlns="http://www.w3.org/2000/svg">
<g clip-path="url(#clip0_79_4)">
<g clip-path="url(#clip1_79_4)">
<path d="M149.552 295.997C146.571 295.997 143.558 295.205 140.609 293.587C137.913 292.097 135.186 290.575 132.586 289.084C130.937 288.133 129.224 287.182 127.544 286.23C122.85 283.598 27.3668 230.386 21.9758 227.532C17.5362 225.185 14.587 221.475 13.2868 216.465C12.8428 214.752 12.5892 212.881 12.5574 210.693C12.4623 206.602 12.3989 189.351 12.5257 184.721C12.5574 183.421 12.6843 179.457 17.1556 177.903C19.756 177.015 21.7855 178.125 22.8637 178.728C26.2569 180.599 65.2621 202.48 96.6249 220.016C117.079 231.464 134.711 241.358 136.93 242.595C138.928 243.705 141.243 245.005 143.558 246.21C147.395 248.24 150.915 248.208 154.625 246.083L156.179 245.195C182.215 230.513 226.547 205.556 231.082 203.304C234.412 201.655 236.917 199.277 238.756 196.074C239.676 194.425 240.057 192.427 239.898 190.081C239.486 184.817 236.917 181.17 231.812 178.601C229.306 177.333 119.933 115.305 118.855 114.702C115.588 112.831 113.622 109.501 113.591 105.728C113.559 101.954 115.462 98.561 118.696 96.6583L118.886 96.5631C119.552 96.1826 135.472 87.1131 140.292 84.8298C144.161 82.9906 148.695 82.9588 152.755 84.703C157.131 86.6057 270.563 150.251 275.859 153.454C279.664 155.769 282.233 159.574 283.058 164.141C283.502 166.614 283.66 207.934 283.438 215.767C283.248 222.046 280.14 227.088 274.686 230.037C271.768 231.591 268.819 233.24 265.965 234.857C264.126 235.904 262.223 236.95 260.32 237.997C256.927 239.868 253.471 241.739 250.109 243.578C247.889 244.783 245.67 245.988 243.45 247.225C241.484 248.303 239.549 249.381 237.583 250.46C234.348 252.235 230.987 254.106 227.657 255.882C225.977 256.802 224.264 257.69 222.583 258.578C220.903 259.466 219.19 260.354 217.51 261.273C215.068 262.605 212.563 264 210.153 265.332C208.06 266.506 205.903 267.679 203.747 268.852C200.702 270.501 197.658 272.15 194.614 273.799C191.189 275.639 187.669 277.573 184.212 279.444C182.024 280.649 179.836 281.886 177.68 283.059C175.587 284.232 173.462 285.406 171.338 286.579C170.291 287.15 169.276 287.721 168.23 288.292C164.71 290.226 161.063 292.255 157.384 294.095C154.847 295.363 152.215 295.997 149.552 295.997ZM19.0583 184.055C19.0266 184.182 18.9949 184.436 18.9632 184.88C18.8363 189.32 18.8998 206.602 18.9949 210.535C19.0266 212.184 19.2169 213.579 19.534 214.784C20.3902 218.019 22.1026 220.238 24.9884 221.761C30.4111 224.646 125.99 277.922 130.683 280.554C132.396 281.505 134.108 282.488 135.757 283.44C138.357 284.93 141.021 286.452 143.685 287.879C147.427 289.909 150.947 290.036 154.499 288.26C158.05 286.484 161.634 284.518 165.09 282.615C166.137 282.044 167.183 281.474 168.23 280.903C170.323 279.761 172.479 278.556 174.54 277.414C176.697 276.209 178.917 274.973 181.105 273.768C184.593 271.865 188.113 269.962 191.538 268.091C194.582 266.442 197.595 264.793 200.639 263.144C202.764 261.971 204.92 260.798 207.013 259.624C209.423 258.292 211.928 256.897 214.402 255.565C216.114 254.646 217.858 253.726 219.539 252.838C221.188 251.982 222.869 251.094 224.518 250.206C227.816 248.398 231.177 246.559 234.412 244.783C236.378 243.705 238.344 242.627 240.279 241.549C242.498 240.344 244.718 239.107 246.938 237.902C250.268 236.094 253.724 234.192 257.117 232.321C258.988 231.306 260.891 230.228 262.73 229.213C265.616 227.595 268.565 225.946 271.546 224.329C274.971 222.49 276.779 219.541 276.874 215.577C277.159 205.905 276.874 168.231 276.588 165.25C276.081 162.523 274.622 160.367 272.402 159.003C269.802 157.418 242.15 141.847 210.755 124.279C175.745 104.681 151.93 91.4893 150.091 90.6648C147.744 89.65 145.144 89.65 142.987 90.6965C138.484 92.8212 122.819 101.732 122.026 102.176L121.931 102.24C120.155 103.286 119.996 104.998 119.996 105.696C119.996 106.394 120.218 108.074 121.994 109.089C123.041 109.692 231.907 171.403 234.666 172.861C241.769 176.445 245.701 182.089 246.272 189.605C246.557 193.252 245.892 196.518 244.306 199.309C241.801 203.685 238.408 206.92 233.873 209.139C230.638 210.725 203.461 225.947 159.287 250.872L157.733 251.76C152.152 254.899 146.158 254.994 140.45 251.95C138.072 250.682 135.725 249.381 133.696 248.271C131.476 247.035 113.813 237.141 93.3903 225.693C62.091 208.093 23.054 186.244 19.6926 184.373C19.534 184.277 19.2803 184.119 19.0583 184.055C19.09 184.055 19.09 184.055 19.0583 184.055ZM149.488 212.437C146.317 212.437 143.082 211.581 139.911 209.837L137.216 208.378C131.127 205.08 124.848 201.655 118.696 198.262C114.605 196.011 110.483 193.696 106.487 191.444C105.314 190.778 104.141 190.112 102.967 189.478L99.3521 187.449C94.3734 184.658 89.2678 181.772 84.2257 178.918C81.6888 177.491 79.1201 176.001 76.6466 174.574C74.7439 173.464 72.8412 172.354 70.9068 171.276C65.4207 168.136 59.8077 164.965 54.3851 161.889L54.0997 161.73C51.2139 160.081 48.3281 158.464 45.4107 156.815C42.9689 155.452 40.5271 154.056 38.117 152.693C36.2143 151.614 34.2799 150.536 32.3772 149.426C28.8255 147.397 25.147 145.304 21.5001 143.274C16.4897 140.452 13.5405 136.139 12.9697 130.748C12.494 126.34 12.3989 88.7304 12.4623 82.4832C12.5257 75.6969 14.9041 70.5596 19.5657 67.1665C21.405 65.8346 23.3394 64.8198 25.2421 63.8367C25.908 63.4879 26.5106 63.1708 27.1448 62.822C33.1383 59.524 39.1318 56.2577 44.7447 53.2134C47.4085 51.7546 50.0723 50.2959 52.7361 48.8689C55.4633 47.3784 58.2222 45.888 60.9494 44.3975C61.7422 43.9536 62.535 43.5096 63.3277 43.0656C64.2474 42.5583 65.167 42.0192 66.1184 41.5118C68.0211 40.497 69.9238 39.4822 71.8265 38.4675C74.6171 36.977 77.5345 35.4231 80.3569 33.8693C82.4816 32.7277 84.6062 31.5226 86.6992 30.3493C88.7922 29.176 90.9803 27.9392 93.1367 26.7659C96.3712 24.99 99.6693 23.2459 102.84 21.5335C105.885 19.8845 109.056 18.2037 112.164 16.4913C114.542 15.1911 116.92 13.8593 119.235 12.5591C121.201 11.4492 123.231 10.3393 125.229 9.22936L127.227 8.11945C130.842 6.12162 134.615 4.06036 138.357 2.09424C143.875 -0.759801 149.837 -0.60124 155.64 2.53821C158.463 4.06037 161.285 5.67766 164.012 7.23153C165.661 8.18288 167.374 9.13422 169.054 10.0856C171.116 11.2272 173.24 12.4005 175.27 13.5421C177.046 14.5252 178.79 15.5083 180.566 16.4913C184.212 18.5209 187.828 20.5504 191.474 22.5799C194.804 24.4509 198.102 26.2902 201.432 28.1612C205.491 30.4127 209.55 32.6959 213.609 34.9475L222.235 39.7359C225.945 41.7972 229.814 43.9536 233.587 46.0465C235.141 46.9027 236.727 47.759 238.281 48.6152C240.057 49.5665 241.896 50.5813 243.672 51.5644C246.209 52.9914 248.809 54.4184 251.282 55.8454C253.534 57.1139 255.754 58.3506 258.005 59.6191C259.876 60.6656 261.811 61.7121 263.65 62.7268C267.582 64.8832 271.641 67.103 275.574 69.418C279.411 71.7012 281.948 75.4115 282.899 80.1365C283.216 81.7221 283.375 83.4979 283.375 85.686C283.375 89.2377 283.375 92.8846 283.375 96.3729C283.375 101.352 283.375 106.521 283.406 111.594C283.438 114.226 282.296 116.446 280.235 117.62C278.174 118.825 275.605 118.761 273.354 117.461C269.834 115.432 266.187 113.402 262.667 111.436C260.986 110.485 259.274 109.565 257.593 108.614C252.139 105.569 246.431 102.366 240.183 98.8781C239.2 98.339 238.249 97.7682 237.298 97.2291C235.776 96.3729 234.222 95.4532 232.668 94.6287C231.209 93.8359 229.687 93.0431 228.228 92.2504C226.167 91.1722 224.01 90.0305 221.918 88.8572C219.507 87.4936 217.097 86.0983 214.782 84.7347C212.531 83.4345 210.216 82.0709 207.901 80.7707C203.683 78.3924 199.339 75.9823 195.185 73.6673C192.299 72.0501 189.381 70.4645 186.496 68.8472C184.403 67.6738 182.31 66.5005 180.28 65.3272C178.663 64.4076 177.046 63.4879 175.428 62.5683C170.735 59.9362 165.693 57.0822 159.509 53.6573L158.589 53.1499C156.623 52.04 154.594 50.9301 152.596 49.8836C148.759 47.8858 145.144 47.8858 141.497 49.9471C138.897 51.4058 136.264 52.8962 133.664 54.355C130.017 56.4162 126.244 58.5409 122.533 60.6339C119.108 62.5366 115.652 64.471 112.29 66.342C108.929 68.2129 105.472 70.1474 102.048 72.0501C99.701 73.3502 97.3543 74.7138 95.0394 76.014C93.3586 76.9654 91.6462 77.9484 89.9655 78.8998L88.8239 79.534C83.8452 82.3563 78.7079 85.2421 73.634 88.0644C71.7947 89.0792 69.9555 90.094 68.1479 91.0453C66.5306 91.9332 64.8499 92.8212 63.2326 93.7408C61.1714 94.8824 59.4906 96.5948 57.9051 99.1318C55.7804 102.557 55.495 106.267 57.1123 110.199C58.3807 113.275 60.5688 115.654 63.6449 117.239C65.389 118.127 67.1014 119.11 68.7187 120.061C69.5432 120.537 70.3677 121.013 71.1922 121.488C73.3486 122.693 75.505 123.899 77.6614 125.104C81.3717 127.197 85.2405 129.321 89.0142 131.478C91.3291 132.778 93.6441 134.11 95.8956 135.41C98.1154 136.678 100.399 138.01 102.65 139.279C105.694 140.991 108.77 142.735 111.783 144.416C115.462 146.477 119.267 148.602 122.977 150.727C125.102 151.932 127.258 153.168 129.32 154.373C131.286 155.515 133.315 156.72 135.313 157.862C138.928 159.923 142.639 161.984 146.222 164.014C148.41 165.219 150.566 166.456 152.755 167.661C155.926 169.468 159.129 171.244 162.3 173.052C164.488 174.288 166.676 175.525 168.864 176.762L170.481 177.681C174.54 179.965 178.726 182.343 182.881 184.658C185.957 186.37 186.591 188.812 186.591 190.525C186.591 192.237 185.957 194.647 182.881 196.36C180.819 197.501 178.758 198.706 176.728 199.88C174.699 201.053 172.574 202.258 170.481 203.431L168.547 204.509C165.027 206.507 161.348 208.569 157.67 210.471C155.165 211.74 152.342 212.437 149.488 212.437ZM146.571 6.47045C144.827 6.47045 143.146 6.91441 141.433 7.77062C137.755 9.67332 134.045 11.7346 130.43 13.7007L128.432 14.8106C126.434 15.8888 124.436 17.0304 122.47 18.1086C120.123 19.4088 117.713 20.7724 115.335 22.0726C112.227 23.7533 109.056 25.4657 105.98 27.1147C102.809 28.8271 99.5107 30.603 96.3078 32.3471C94.1831 33.5205 92.0268 34.7255 89.9338 35.8988C87.8408 37.0722 85.6844 38.2772 83.528 39.4505C80.674 41.0044 77.7565 42.5583 74.9342 44.0804C73.0315 45.0952 71.1288 46.11 69.2578 47.1247C68.3699 47.6004 67.4503 48.1395 66.5623 48.6152C65.7695 49.0591 64.945 49.5348 64.0888 49.9788C61.3299 51.4692 58.6027 52.9597 55.8438 54.4501C53.18 55.9088 50.5163 57.3359 47.8525 58.7946C42.2395 61.8389 36.246 65.1052 30.2842 68.4032C29.6183 68.7838 28.9206 69.1326 28.2864 69.4814C26.5423 70.401 24.8616 71.289 23.4028 72.3355C20.4219 74.4918 19.0266 77.7264 18.9632 82.4515C18.8998 90.9185 19.0583 126.309 19.4389 129.987C19.7877 133.285 21.5001 135.759 24.703 137.535C28.3498 139.596 32.0284 141.689 35.6118 143.718C37.5145 144.796 39.4172 145.875 41.3199 146.985C43.7617 148.38 46.1718 149.743 48.6136 151.107C51.4993 152.756 54.4168 154.373 57.3025 156.022L57.5879 156.181C63.0106 159.257 68.6236 162.428 74.1097 165.599C76.0441 166.709 77.9468 167.819 79.8812 168.929C82.3547 170.356 84.8916 171.815 87.4286 173.242C92.439 176.096 97.5763 178.95 102.555 181.741L106.17 183.77C107.343 184.436 108.517 185.102 109.69 185.736C113.654 187.956 117.777 190.271 121.836 192.522C127.988 195.916 134.267 199.34 140.324 202.638L143.019 204.097C147.205 206.38 151.074 206.507 154.879 204.541C158.463 202.67 162.078 200.641 165.566 198.675L167.5 197.596C169.562 196.423 171.655 195.218 173.684 194.076C175.714 192.903 177.807 191.698 179.9 190.556C180.058 190.461 180.153 190.398 180.248 190.334C180.185 190.271 180.058 190.208 179.931 190.112C175.777 187.797 171.591 185.419 167.532 183.136L165.915 182.216C163.727 180.979 161.539 179.743 159.351 178.506C156.179 176.698 152.976 174.923 149.805 173.115C147.649 171.878 145.461 170.673 143.304 169.468C139.721 167.47 136.011 165.377 132.364 163.316C130.334 162.143 128.273 160.969 126.307 159.796C124.246 158.591 122.121 157.354 120.028 156.181C116.318 154.088 112.512 151.963 108.866 149.902C105.853 148.221 102.777 146.477 99.701 144.765C97.4177 143.465 95.1345 142.164 92.883 140.896C90.6314 139.596 88.3165 138.264 86.0333 136.995C82.2596 134.871 78.4225 132.714 74.7122 130.653C72.5558 129.448 70.3994 128.243 68.243 127.038C67.3868 126.562 66.5306 126.055 65.6744 125.579C64.0254 124.628 62.4715 123.74 60.8542 122.884C56.4463 120.601 53.1166 117.017 51.309 112.546C48.899 106.679 49.3429 100.812 52.6092 95.5801C54.7656 92.1235 57.2708 89.6183 60.2834 87.9693C61.9324 87.0496 63.6131 86.13 65.2622 85.2421C67.038 84.2907 68.8773 83.276 70.6848 82.2929C75.7587 79.4706 80.896 76.5848 85.843 73.7625L86.9846 73.1282C88.6653 72.1769 90.346 71.2255 92.0585 70.2425C94.3734 68.9423 96.7518 67.5787 99.0984 66.2468C102.523 64.3441 105.98 62.4097 109.341 60.5387C112.703 58.6678 116.159 56.7333 119.584 54.8307C123.294 52.7694 127.068 50.6447 130.715 48.5835C133.315 47.1247 135.947 45.6343 138.548 44.1756C144.097 41.0678 150.059 41.0044 155.831 44.0487C157.892 45.1269 159.985 46.3002 161.951 47.4101L162.871 47.9175C169.023 51.3741 174.096 54.1964 178.79 56.8285C180.407 57.7481 182.056 58.6678 183.673 59.5874C185.703 60.729 187.764 61.9341 189.825 63.0757C192.711 64.693 195.597 66.2785 198.483 67.8958C202.669 70.2108 207.013 72.6209 211.262 74.9992C213.609 76.3311 215.956 77.6947 218.239 79.0266C220.554 80.3902 222.932 81.7855 225.279 83.0857C227.309 84.2273 229.401 85.3372 231.431 86.4154C232.921 87.2082 234.444 88.001 235.966 88.8255C237.583 89.7134 239.169 90.6013 240.723 91.4893C241.674 92.0284 242.625 92.5675 243.577 93.1066C249.824 96.5948 255.5 99.7977 260.955 102.842C262.635 103.793 264.316 104.713 265.997 105.664C269.548 107.63 273.227 109.66 276.81 111.721C276.937 111.785 277.032 111.816 277.096 111.848C277.096 111.785 277.127 111.658 277.127 111.531C277.064 106.425 277.096 101.225 277.096 96.2143C277.096 92.726 277.096 89.1109 277.096 85.5592C277.096 83.7833 276.969 82.4197 276.747 81.2464C276.176 78.329 274.717 76.1726 272.466 74.809C268.629 72.5257 264.633 70.3376 260.764 68.2129C258.893 67.1982 256.959 66.1517 255.056 65.0735C252.805 63.805 250.553 62.5683 248.302 61.2998C245.828 59.9045 243.259 58.4458 240.723 57.0505C238.947 56.0674 237.139 55.0843 235.395 54.133C233.841 53.3085 232.256 52.4206 230.67 51.5644C226.865 49.4714 223.027 47.315 219.285 45.2537L210.66 40.4653C206.601 38.2138 202.542 35.9305 198.451 33.679C195.121 31.8397 191.823 29.9687 188.493 28.0978C184.847 26.0682 181.232 24.0387 177.585 22.0091C175.841 21.0261 174.065 20.0747 172.321 19.0917C170.259 17.95 168.166 16.7767 166.073 15.6351C164.361 14.6838 162.649 13.7007 161 12.7493C158.304 11.1955 155.513 9.6099 152.723 8.11945C150.535 7.04125 148.537 6.47045 146.571 6.47045Z" fill="#1E1E1E"/>
<path d="M149.488 212.438C146.317 212.438 143.083 211.582 139.911 209.837C134.362 206.825 69.0677 170.008 37.6732 152.313C28.8574 147.334 22.7688 143.909 21.5637 143.243C16.5533 140.421 13.6041 136.108 13.0333 130.717C12.843 128.909 12.6845 123.962 12.5893 116.003C12.5576 112.927 12.5259 110.009 12.5259 108.107C12.5259 107.06 12.5259 106.204 12.5259 105.601C12.5259 105.253 12.5259 104.935 12.5259 104.65C12.5259 102.43 12.5259 100.242 12.5259 98.0223C12.5259 92.9168 12.4942 87.6526 12.5576 82.4519C12.621 75.6656 14.9994 70.5283 19.661 67.1352C22.5151 65.0422 137.501 2.57035 138.516 2.03126C144.034 -0.822789 149.996 -0.664228 155.799 2.47522C161.539 5.61467 269.992 65.8985 275.732 69.3233C279.569 71.6065 282.106 75.3168 283.058 80.0418C283.375 81.6274 283.533 83.4033 283.533 85.5914C283.533 89.1431 283.533 92.7899 283.533 96.2782C283.533 101.257 283.533 106.426 283.565 111.5C283.597 114.132 282.455 116.352 280.394 117.525C278.333 118.73 275.764 118.667 273.512 117.366C268.375 114.386 164.837 56.4801 159.636 53.5943L158.716 53.087C156.75 51.9771 154.721 50.8671 152.723 49.8207C148.886 47.8228 145.271 47.8228 141.624 49.8841C136.074 52.9918 67.0382 91.6166 63.3596 93.6778C61.2984 94.8195 59.6176 96.5319 58.0321 99.0688C55.9074 102.494 55.622 106.204 57.2393 110.136C58.5077 113.212 60.6958 115.591 63.7719 117.176C65.4209 118.032 107.153 141.626 153.516 167.82C169.213 176.699 181.612 183.707 183.071 184.532C186.147 186.244 186.781 188.686 186.781 190.398C186.781 192.111 186.147 194.521 183.071 196.233C182.12 196.772 180.471 197.692 178.504 198.834C171.623 202.734 161.253 208.601 157.892 210.345C155.165 211.74 152.342 212.438 149.488 212.438ZM23.3713 72.3993C20.4221 74.5557 19.0268 77.7586 18.9951 82.4836C18.9634 87.6526 18.9634 92.9168 18.9634 97.9906C18.9634 100.21 18.9634 102.399 18.9634 104.618V104.713C18.9634 107.282 19.0585 126.404 19.439 129.988C19.7879 133.286 21.5003 135.759 24.7032 137.535C25.9399 138.233 31.9968 141.658 40.8127 146.605C72.1754 164.3 137.47 201.085 142.987 204.066C147.142 206.349 151.042 206.476 154.848 204.51C158.082 202.829 168.832 196.741 175.238 193.125C177.236 191.984 178.885 191.064 179.836 190.525C179.995 190.43 180.09 190.367 180.185 190.303C180.122 190.24 179.995 190.176 179.868 190.081C178.378 189.257 166.613 182.597 150.281 173.369C117.491 154.818 62.5668 123.772 60.7593 122.821C56.3513 120.538 53.0216 116.954 51.2141 112.483C48.804 106.616 49.2479 100.75 52.5142 95.5171C54.6706 92.0605 57.1759 89.5553 60.1885 87.9063C63.867 85.8768 132.903 47.252 138.421 44.1443C143.971 41.0365 149.932 40.9731 155.704 44.0174C157.765 45.0956 159.858 46.269 161.824 47.3789L162.744 47.8862C167.881 50.7403 271.324 108.614 276.684 111.722C276.81 111.785 276.906 111.817 276.969 111.849C276.969 111.785 277.001 111.658 277.001 111.531C276.937 106.426 276.969 101.225 276.969 96.2148C276.969 92.7265 276.969 89.1114 276.969 85.5597C276.969 83.7838 276.842 82.4202 276.62 81.2469C276.049 78.3294 274.591 76.173 272.339 74.8094C266.124 71.0992 153.484 8.56385 152.596 8.08818C148.664 5.9635 145.017 5.83665 141.402 7.70764" fill="#1E1E1E"/>
<path d="M149.552 295.998C146.571 295.998 143.558 295.205 140.609 293.588C138.96 292.7 123.231 283.916 103.285 272.785C70.3679 254.424 25.274 229.277 21.9443 227.501C17.5046 225.154 14.5554 221.444 13.2553 216.433C12.8113 214.721 12.5576 212.85 12.5259 210.662C12.4308 206.571 12.3673 189.32 12.4942 184.69C12.5259 183.39 12.6528 179.426 17.1241 177.872C19.7244 176.984 21.754 178.094 22.8322 178.697C26.2253 180.568 65.2306 202.449 96.5934 219.985C117.047 231.433 134.679 241.327 136.899 242.564C138.897 243.674 141.212 244.974 143.527 246.179C147.364 248.208 150.884 248.177 154.594 246.052L156.148 245.164C182.183 230.482 226.516 205.525 231.051 203.273C234.38 201.624 236.886 199.246 238.725 196.043C239.644 194.394 240.025 192.396 239.866 190.049C239.454 184.785 236.886 181.138 231.78 178.57C229.275 177.301 119.87 115.273 118.823 114.639C115.557 112.8 113.591 109.438 113.559 105.696C113.527 101.923 115.43 98.5296 118.696 96.5952L118.792 96.5318C121.297 95.0413 123.802 93.6143 126.149 92.3458C127.1 91.8067 128.051 91.2676 129.034 90.7285C132.681 88.699 136.423 86.606 140.292 84.7667C144.161 82.9275 148.696 82.8958 152.755 84.6399C157.131 86.5426 270.563 150.188 275.859 153.391C279.665 155.706 282.233 159.511 283.058 164.077C283.438 166.17 283.502 168.263 283.533 170.071C283.597 174.701 283.724 206 283.438 215.672C283.248 221.951 280.14 226.993 274.686 229.943C271.768 231.496 268.819 233.145 265.965 234.763C264.126 235.809 262.223 236.856 260.32 237.902C255.754 240.407 162.363 291.558 157.448 294C154.848 295.364 152.216 295.998 149.552 295.998ZM19.0585 184.056C19.0268 184.183 18.9951 184.436 18.9634 184.88C18.8365 189.32 18.8999 206.603 18.9951 210.535C19.0268 212.184 19.2171 213.579 19.5342 214.784C20.3904 218.019 22.1028 220.239 24.9886 221.761C28.3817 223.568 71.6681 247.701 106.456 267.109C126.371 278.208 142.1 286.992 143.717 287.88C147.459 289.909 150.979 290.036 154.531 288.26C159.034 286.009 249.38 236.57 257.181 232.289C259.052 231.274 260.955 230.196 262.794 229.181C265.68 227.564 268.629 225.915 271.61 224.298C275.035 222.459 276.842 219.509 276.937 215.545C277.223 205.969 277.096 174.796 277.033 170.198C277.001 168.644 276.969 166.868 276.684 165.283C276.176 162.524 274.718 160.336 272.466 158.94C269.866 157.355 242.213 141.784 210.819 124.216C175.809 104.618 151.994 91.4262 150.154 90.6017C147.808 89.5869 145.207 89.5869 143.051 90.6334C139.372 92.3775 135.726 94.4071 132.174 96.4049C131.222 96.944 130.239 97.4831 129.288 98.0222C127.005 99.2907 124.563 100.654 122.153 102.113L122.026 102.176C120.789 102.906 120.06 104.206 120.06 105.665C120.06 106.331 120.282 108.043 122.058 109.026C128.4 112.641 232.065 171.403 234.761 172.798C241.864 176.382 245.797 182.026 246.367 189.542C246.653 193.189 245.987 196.455 244.401 199.246C241.896 203.622 238.503 206.856 233.968 209.076C230.734 210.662 203.557 225.883 159.382 250.809L157.829 251.697C152.216 254.836 146.254 254.931 140.546 251.887C138.167 250.618 135.821 249.318 133.791 248.208C131.571 246.972 113.908 237.078 93.4857 225.63C62.0912 208.093 23.0542 186.244 19.6927 184.373C19.5342 184.278 19.2805 184.119 19.0585 184.056C19.0902 184.056 19.0902 184.056 19.0585 184.056Z" fill="#1E1E1E"/>
</g>
</g>
<defs>
<clipPath id="clip0_79_4">
<rect width="296" height="296" fill="white"/>
</clipPath>
<clipPath id="clip1_79_4">
<rect width="296" height="296" fill="white"/>
</clipPath>
</defs>
</svg>
